<svg width="197" height="120" viewBox="0 0 197 120" fill="none" xmlns="http://www.w3.org/2000/svg">
<g clip-path="url(#clip0_587_735)">
<path opacity="0.1" d="M229.633 74.1806C229.644 79.8608 228.093 85.4346 225.15 90.293C225.15 96.2348 222.38 101.62 217.887 105.546C216.762 106.527 215.551 107.404 214.269 108.168C214.217 108.201 214.164 108.232 214.111 108.263C214.015 108.319 213.919 108.376 213.821 108.434L213.73 108.487C209.476 110.857 204.681 112.087 199.811 112.057H70.5631C69.5333 112.057 68.5127 112.016 67.5012 111.934C63.9067 111.651 60.3746 110.833 57.0216 109.507C56.3671 109.248 55.7252 108.97 55.0959 108.673C54.7962 108.532 54.4992 108.387 54.2052 108.238C54.0215 108.146 53.8379 108.05 53.656 107.954C51.5415 106.839 49.5578 105.493 47.7417 103.939C41.9063 98.9225 38.2884 91.9922 38.2884 84.3375C35.015 79.297 33.2785 73.4132 33.2906 67.403C33.2906 50.3878 46.8904 36.5941 63.6688 36.5941C64.1836 36.5941 64.6985 36.6095 65.2134 36.637C65.2872 36.637 65.3593 36.637 65.4331 36.6473C68.2615 31.8262 72.0425 27.3965 76.5889 23.4971C88.9873 12.8733 107.108 6.17641 127.293 6.17641C144.253 6.17641 159.756 10.9048 171.631 18.7173C176.131 16.1735 181.214 14.8401 186.383 14.8471C203.158 14.8471 216.761 28.6408 216.761 45.656C216.759 46.7326 216.701 47.8084 216.589 48.8792C220.633 51.7416 223.929 55.5345 226.199 59.938C228.469 64.3415 229.647 69.2264 229.633 74.1806Z" fill="#6C63FF"/>
<g opacity="0.2">
<path opacity="0.2" d="M24.0109 106.547C24.0109 106.626 24.0023 106.703 23.9937 106.779C23.3381 106.52 22.6952 106.241 22.0649 105.943C21.7281 105.899 21.415 105.747 21.1727 105.509C20.9887 105.416 20.8048 105.319 20.6226 105.223C20.6638 105.137 20.7103 105.053 20.7618 104.972C21.1159 104.412 21.654 104.061 22.2471 104.08C22.8402 104.099 23.3542 104.482 23.6722 105.062C23.9154 105.518 24.0324 106.03 24.0109 106.547Z" fill="#3F3D56"/>
<path opacity="0.2" d="M24.1037 103.604C24.092 104.119 23.9431 104.623 23.6723 105.062C23.3181 105.62 22.78 105.971 22.187 105.952L22.0649 105.943C21.7282 105.899 21.415 105.746 21.1727 105.508C21.0084 105.352 20.8697 105.171 20.7618 104.972C20.5246 104.514 20.4086 104.004 20.4248 103.488C20.4411 102.973 20.5891 102.471 20.8547 102.029C21.2088 101.469 21.7469 101.118 22.34 101.137C22.933 101.156 23.4471 101.539 23.7651 102.118C24.0083 102.575 24.1252 103.087 24.1037 103.604Z" fill="#3F3D56"/>
<path opacity="0.2" d="M24.1969 100.666C24.2389 99.3364 23.4499 98.2327 22.4345 98.2006C21.4191 98.1685 20.5619 99.2202 20.5199 100.55C20.4779 101.879 21.267 102.983 22.2823 103.015C23.2977 103.047 24.1549 101.995 24.1969 100.666Z" fill="#3F3D56"/>
<path opacity="0.2" d="M24.2892 97.7227C24.3312 96.3932 23.5421 95.2894 22.5268 95.2573C21.5114 95.2253 20.6542 96.277 20.6122 97.6065C20.5702 98.9359 21.3593 100.04 22.3746 100.072C23.39 100.104 24.2472 99.0521 24.2892 97.7227Z" fill="#3F3D56"/>
<path opacity="0.2" d="M24.3966 94.5854C24.4365 93.2553 23.6453 92.1523 22.6294 92.1218C21.6135 92.0913 20.7577 93.1449 20.7178 94.4751C20.6779 95.8052 21.469 96.9082 22.4849 96.9387C23.5008 96.9691 24.3567 95.9156 24.3966 94.5854Z" fill="#3F3D56"/>
<path opacity="0.2" d="M16.2921 74.3588C16.05 74.031 15.8317 73.6863 15.6389 73.3274L20.497 72.6861L15.2676 72.5606C14.8009 71.4537 14.5649 70.2632 14.5741 69.062C14.5832 67.8607 14.8373 66.674 15.3208 65.5743L22.2178 69.4336L15.9002 64.4741C16.5375 63.4433 17.3805 62.555 18.3766 61.8646C19.3726 61.1743 20.5003 60.6967 21.6892 60.4618C22.8781 60.2268 24.1027 60.2396 25.2865 60.4991C26.4702 60.7587 27.5878 61.2596 28.5693 61.9705C29.5508 62.6814 30.3751 63.587 30.9909 64.6308C31.6067 65.6746 32.0006 66.8342 32.1481 68.0371C32.2956 69.2399 32.1935 70.4603 31.8482 71.622C31.5028 72.7836 30.9217 73.8616 30.141 74.7886C30.5172 75.2987 30.8371 75.848 31.0951 76.4269L24.7191 79.4885L31.4802 77.4549C31.906 78.8598 31.9746 80.3487 31.6798 81.7868C31.3851 83.225 30.7362 84.5669 29.7921 85.691C30.7737 87.0228 31.3607 88.604 31.486 90.2537C31.6112 91.9035 31.2697 93.5552 30.5005 95.02C29.7312 96.4847 28.5653 97.7035 27.136 98.5368C25.7066 99.3701 24.0717 99.7844 22.418 99.7323C20.7643 99.6801 19.1587 99.1637 17.7848 98.242C16.4108 97.3203 15.3239 96.0305 14.6485 94.5202C13.973 93.0098 13.7362 91.3399 13.9652 89.7013C14.1941 88.0628 14.8796 86.5217 15.9432 85.2543C14.7704 83.6627 14.1667 81.7231 14.2291 79.7471C14.2914 77.771 15.0162 75.8733 16.287 74.3588H16.2921Z" fill="#6C63FF"/>
<path opacity="0.1" d="M31.855 80.3034C31.794 82.2804 31.0671 84.1789 29.7921 85.691C30.7737 87.0228 31.3607 88.604 31.486 90.2538C31.6112 91.9035 31.2697 93.5552 30.5005 95.02C29.7312 96.4848 28.5653 97.7035 27.136 98.5368C25.7066 99.3702 24.0717 99.7845 22.418 99.7323C20.7643 99.6802 19.1587 99.1637 17.7848 98.242C16.4108 97.3203 15.3239 96.0305 14.6485 94.5202C13.973 93.0099 13.7362 91.3399 13.9652 89.7014C14.1941 88.0628 14.8796 86.5217 15.9432 85.2544C14.8137 83.7192 31.8859 79.3132 31.855 80.3034Z" fill="black"/>
</g>
<path d="M164.912 23.7938V106.169C164.912 107.008 164.578 107.813 163.985 108.407C163.391 109 162.586 109.334 161.747 109.334H35.3636C35.0681 109.334 34.774 109.292 34.4903 109.21C33.8296 109.021 33.2485 108.622 32.835 108.073C32.4214 107.524 32.1981 106.856 32.1987 106.169V69.4079C32.1987 69.2205 32.1987 69.0349 32.1987 68.8492V33.7903C32.2727 33.7903 32.3449 33.7903 32.4188 33.8006C35.2518 28.9717 39.039 24.5347 43.5928 20.629H161.747C162.586 20.629 163.391 20.9624 163.985 21.556C164.578 22.1495 164.912 22.9545 164.912 23.7938Z" fill="white"/>
<path d="M143.255 31.3268H125.742C124.035 31.3268 122.651 32.7106 122.651 34.4177C122.651 36.1248 124.035 37.5086 125.742 37.5086H143.255C144.962 37.5086 146.345 36.1248 146.345 34.4177C146.345 32.7106 144.962 31.3268 143.255 31.3268Z" fill="#3F3D56"/>
<path opacity="0.1" d="M142.742 32.3599H126.253C125.117 32.3599 124.195 33.2808 124.195 34.4168C124.195 35.5528 125.117 36.4737 126.253 36.4737H142.742C143.879 36.4737 144.8 35.5528 144.8 34.4168C144.8 33.2808 143.879 32.3599 142.742 32.3599Z" fill="black"/>
<path d="M142.454 32.5851H138.675C137.664 32.5851 136.844 33.4048 136.844 34.4159V34.4177C136.844 35.4288 137.664 36.2485 138.675 36.2485H142.454C143.465 36.2485 144.284 35.4288 144.284 34.4177V34.4159C144.284 33.4048 143.465 32.5851 142.454 32.5851Z" fill="#6C63FF"/>
<path d="M140.508 35.5625C141.14 35.5625 141.653 35.05 141.653 34.4176C141.653 33.7853 141.14 33.2727 140.508 33.2727C139.875 33.2727 139.363 33.7853 139.363 34.4176C139.363 35.05 139.875 35.5625 140.508 35.5625Z" fill="white"/>
<path d="M143.255 72.0776H125.742C124.035 72.0776 122.651 73.4614 122.651 75.1685C122.651 76.8755 124.035 78.2594 125.742 78.2594H143.255C144.962 78.2594 146.345 76.8755 146.345 75.1685C146.345 73.4614 144.962 72.0776 143.255 72.0776Z" fill="#3F3D56"/>
<path opacity="0.1" d="M142.742 73.1108H126.253C125.117 73.1108 124.195 74.0317 124.195 75.1677C124.195 76.3037 125.117 77.2246 126.253 77.2246H142.742C143.879 77.2246 144.8 76.3037 144.8 75.1677C144.8 74.0317 143.879 73.1108 142.742 73.1108Z" fill="black"/>
<path d="M142.454 73.3359H138.675C137.664 73.3359 136.844 74.1556 136.844 75.1668V75.1685C136.844 76.1796 137.664 76.9993 138.675 76.9993H142.454C143.465 76.9993 144.284 76.1796 144.284 75.1685V75.1668C144.284 74.1556 143.465 73.3359 142.454 73.3359Z" fill="#6C63FF"/>
<path d="M140.508 76.3134C141.14 76.3134 141.653 75.8008 141.653 75.1685C141.653 74.5361 141.14 74.0235 140.508 74.0235C139.875 74.0235 139.363 74.5361 139.363 75.1685C139.363 75.8008 139.875 76.3134 140.508 76.3134Z" fill="white"/>
<path d="M143.255 92.4522H125.742C124.035 92.4522 122.651 93.836 122.651 95.5431C122.651 97.2502 124.035 98.634 125.742 98.634H143.255C144.962 98.634 146.345 97.2502 146.345 95.5431C146.345 93.836 144.962 92.4522 143.255 92.4522Z" fill="#3F3D56"/>
<path opacity="0.1" d="M142.742 93.487H126.253C125.117 93.487 124.195 94.4079 124.195 95.5439C124.195 96.6799 125.117 97.6008 126.253 97.6008H142.742C143.879 97.6008 144.8 96.6799 144.8 95.5439C144.8 94.4079 143.879 93.487 142.742 93.487Z" fill="black"/>
<path d="M142.454 93.7122H138.675C137.664 93.7122 136.844 94.5318 136.844 95.543V95.5447C136.844 96.5558 137.664 97.3755 138.675 97.3755H142.454C143.465 97.3755 144.284 96.5558 144.284 95.5447V95.543C144.284 94.5318 143.465 93.7122 142.454 93.7122Z" fill="#6C63FF"/>
<path d="M140.508 96.6879C141.14 96.6879 141.653 96.1753 141.653 95.543C141.653 94.9106 141.14 94.398 140.508 94.398C139.875 94.398 139.363 94.9106 139.363 95.543C139.363 96.1753 139.875 96.6879 140.508 96.6879Z" fill="white"/>
<path d="M62.7845 27.4348H52.5955C51.5843 27.4348 50.7646 28.2544 50.7646 29.2656V29.2673C50.7646 30.2784 51.5843 31.0981 52.5955 31.0981H62.7845C63.7956 31.0981 64.6153 30.2784 64.6153 29.2673V29.2656C64.6153 28.2544 63.7956 27.4348 62.7845 27.4348Z" fill="#6C63FF"/>
<path d="M87.3948 32.5851H52.5955C51.5843 32.5851 50.7646 33.4048 50.7646 34.4159V34.4177C50.7646 35.4288 51.5843 36.2485 52.5955 36.2485H87.3948C88.406 36.2485 89.2256 35.4288 89.2256 34.4177V34.4159C89.2256 33.4048 88.406 32.5851 87.3948 32.5851Z" fill="#6C63FF"/>
<path d="M87.3948 37.7372H52.5955C51.5843 37.7372 50.7646 38.5569 50.7646 39.5681V39.5698C50.7646 40.5809 51.5843 41.4006 52.5955 41.4006H87.3948C88.406 41.4006 89.2256 40.5809 89.2256 39.5698V39.5681C89.2256 38.5569 88.406 37.7372 87.3948 37.7372Z" fill="#6C63FF"/>
<g opacity="0.5">
<path opacity="0.5" d="M62.7845 47.8093H52.5955C51.5843 47.8093 50.7646 48.629 50.7646 49.6402V49.6419C50.7646 50.653 51.5843 51.4727 52.5955 51.4727H62.7845C63.7956 51.4727 64.6153 50.653 64.6153 49.6419V49.6402C64.6153 48.629 63.7956 47.8093 62.7845 47.8093Z" fill="#6C63FF"/>
<path opacity="0.5" d="M77.6425 52.9615H52.5955C51.5843 52.9615 50.7646 53.7812 50.7646 54.7923V54.794C50.7646 55.8051 51.5843 56.6248 52.5955 56.6248H77.6425C78.6536 56.6248 79.4733 55.8051 79.4733 54.794V54.7923C79.4733 53.7812 78.6536 52.9615 77.6425 52.9615Z" fill="#6C63FF"/>
<path opacity="0.5" d="M87.3948 58.1118H52.5955C51.5843 58.1118 50.7646 58.9315 50.7646 59.9427V59.9444C50.7646 60.9555 51.5843 61.7752 52.5955 61.7752H87.3948C88.406 61.7752 89.2256 60.9555 89.2256 59.9444V59.9427C89.2256 58.9315 88.406 58.1118 87.3948 58.1118Z" fill="#6C63FF"/>
</g>
<path d="M62.7845 68.1855H52.5955C51.5843 68.1855 50.7646 69.0052 50.7646 70.0164V70.0181C50.7646 71.0292 51.5843 71.8489 52.5955 71.8489H62.7845C63.7956 71.8489 64.6153 71.0292 64.6153 70.0181V70.0164C64.6153 69.0052 63.7956 68.1855 62.7845 68.1855Z" fill="#6C63FF"/>
<path d="M87.3948 73.3359H52.5955C51.5843 73.3359 50.7646 74.1556 50.7646 75.1668V75.1685C50.7646 76.1796 51.5843 76.9993 52.5955 76.9993H87.3948C88.406 76.9993 89.2256 76.1796 89.2256 75.1685V75.1668C89.2256 74.1556 88.406 73.3359 87.3948 73.3359Z" fill="#6C63FF"/>
<path d="M72.829 78.488H52.5955C51.5843 78.488 50.7646 79.3077 50.7646 80.3189V80.3206C50.7646 81.3317 51.5843 82.1514 52.5955 82.1514H72.829C73.8402 82.1514 74.6599 81.3317 74.6599 80.3206V80.3189C74.6599 79.3077 73.8402 78.488 72.829 78.488Z" fill="#6C63FF"/>
<path d="M62.7845 88.56H52.5955C51.5843 88.56 50.7646 89.3797 50.7646 90.3909V90.3926C50.7646 91.4037 51.5843 92.2234 52.5955 92.2234H62.7845C63.7956 92.2234 64.6153 91.4037 64.6153 90.3926V90.3909C64.6153 89.3797 63.7956 88.56 62.7845 88.56Z" fill="#6C63FF"/>
<path d="M87.3948 93.7122H52.5955C51.5843 93.7122 50.7646 94.5318 50.7646 95.543V95.5447C50.7646 96.5558 51.5843 97.3755 52.5955 97.3755H87.3948C88.406 97.3755 89.2256 96.5558 89.2256 95.5447V95.543C89.2256 94.5318 88.406 93.7122 87.3948 93.7122Z" fill="#6C63FF"/>
<path d="M79.8773 98.8625H52.5955C51.5843 98.8625 50.7646 99.6822 50.7646 100.693V100.695C50.7646 101.706 51.5843 102.526 52.5955 102.526H79.8773C80.8884 102.526 81.7081 101.706 81.7081 100.695V100.693C81.7081 99.6822 80.8884 98.8625 79.8773 98.8625Z" fill="#6C63FF"/>
<path opacity="0.7" d="M44.9194 44.6943H157.003" stroke="#3F3D56" stroke-width="0.171908" stroke-miterlimit="10" stroke-linecap="round"/>
<path opacity="0.7" d="M44.9194 65.4092H157.003" stroke="#3F3D56" stroke-width="0.171908" stroke-miterlimit="10" stroke-linecap="round"/>
<path opacity="0.7" d="M44.9194 86.1241H157.003" stroke="#3F3D56" stroke-width="0.171908" stroke-miterlimit="10" stroke-linecap="round"/>
<path opacity="0.7" d="M44.9194 107.355H157.003" stroke="#3F3D56" stroke-width="0.171908" stroke-miterlimit="10" stroke-linecap="round"/>
<path opacity="0.1" d="M136.89 119.99C150.911 119.99 162.278 119.182 162.278 118.185C162.278 117.188 150.911 116.38 136.89 116.38C122.869 116.38 111.503 117.188 111.503 118.185C111.503 119.182 122.869 119.99 136.89 119.99Z" fill="#6C63FF"/>
<path opacity="0.1" d="M12.3468 27.9883C14.4004 27.9883 16.0652 26.3235 16.0652 24.2699C16.0652 22.2163 14.4004 20.5516 12.3468 20.5516C10.2932 20.5516 8.62842 22.2163 8.62842 24.2699C8.62842 26.3235 10.2932 27.9883 12.3468 27.9883Z" fill="#6C63FF"/>
<path opacity="0.1" d="M27.8443 7.43674C29.8979 7.43674 31.5627 5.77197 31.5627 3.71837C31.5627 1.66477 29.8979 0 27.8443 0C25.7907 0 24.126 1.66477 24.126 3.71837C24.126 5.77197 25.7907 7.43674 27.8443 7.43674Z" fill="#6C63FF"/>
<path opacity="0.1" d="M26.5842 24.0689C30.0259 24.0689 32.8159 21.2789 32.8159 17.8372C32.8159 14.3956 30.0259 11.6055 26.5842 11.6055C23.1426 11.6055 20.3525 14.3956 20.3525 17.8372C20.3525 21.2789 23.1426 24.0689 26.5842 24.0689Z" fill="#6C63FF"/>
<path d="M143.255 51.7014H125.742C124.035 51.7014 122.651 53.0852 122.651 54.7923C122.651 56.4993 124.035 57.8832 125.742 57.8832H143.255C144.962 57.8832 146.345 56.4993 146.345 54.7923C146.345 53.0852 144.962 51.7014 143.255 51.7014Z" fill="#3F3D56"/>
<path opacity="0.1" d="M142.742 52.7361H126.253C125.117 52.7361 124.195 53.657 124.195 54.793C124.195 55.929 125.117 56.8499 126.253 56.8499H142.742C143.879 56.8499 144.8 55.929 144.8 54.793C144.8 53.657 143.879 52.7361 142.742 52.7361Z" fill="black"/>
<path d="M124.886 113.631C125.156 113.592 125.426 113.537 125.691 113.475C125.656 113.74 125.58 113.997 125.464 114.238C125.201 114.737 124.687 115.037 124.214 115.343C124.149 115.283 124.065 115.246 123.976 115.24C123.887 115.234 123.799 115.259 123.726 115.311C123.157 115.655 122.703 116.139 122.1 116.435C121.888 116.538 121.668 116.621 121.462 116.736C120.961 117.041 120.547 117.469 120.259 117.979C120.087 118.245 119.947 118.596 120.116 118.861C120.18 118.95 120.264 119.025 120.36 119.079C120.605 119.25 120.899 119.337 121.197 119.328C121.369 119.313 121.541 119.247 121.728 119.218C121.964 119.177 122.205 119.198 122.442 119.177C122.786 119.133 123.123 119.045 123.446 118.917L124.627 118.505C124.96 118.397 125.285 118.264 125.598 118.106C125.785 118.005 125.962 117.886 126.153 117.793C126.368 117.698 126.59 117.62 126.817 117.559L127.487 117.363C127.584 117.326 127.687 117.313 127.79 117.324C127.883 117.341 127.962 117.399 128.056 117.423C128.201 117.449 128.349 117.435 128.486 117.382L129.263 117.162C129.427 117.125 129.584 117.06 129.726 116.97C130.081 116.717 130.145 116.215 130.143 115.777C130.141 115.113 130.067 114.451 129.92 113.803C129.82 113.844 129.733 113.909 129.667 113.994C129.588 113.882 129.502 113.775 129.411 113.672C129.053 113.256 128.789 112.768 128.636 112.24C128.916 112.032 129.15 111.767 129.323 111.463C128.912 109.897 128.491 108.307 127.656 106.925C127.382 106.475 127.07 106.052 126.796 105.608C125.983 104.319 125.816 102.686 124.886 101.482C124.798 101.36 124.75 101.214 124.75 101.063C124.75 100.912 124.798 100.766 124.886 100.644C124.993 100.503 125.165 100.37 125.132 100.195C125.108 100.069 124.977 99.9542 125.027 99.8373C125.051 99.7806 125.11 99.7496 125.154 99.7084C125.313 99.5605 125.292 99.3112 125.307 99.0946C125.342 98.548 125.667 98.0632 125.98 97.6231C126.043 97.5178 126.127 97.4266 126.227 97.3549C126.311 97.3034 126.411 97.2793 126.495 97.2277C126.791 97.0403 126.77 96.6054 126.911 96.2822C127.097 95.8559 127.565 95.641 127.871 95.2955C128.261 94.8554 128.361 94.2434 128.771 93.86C128.814 93.8197 128.859 93.7829 128.907 93.75C128.729 94.4022 128.647 95.0769 128.665 95.7528C128.625 98.0787 129.203 100.485 128.933 102.801C128.72 104.634 129.839 106.461 131.426 107.377C132.047 107.708 132.697 107.984 133.367 108.201C134.36 108.556 135.35 108.923 136.325 109.332C137.013 109.621 137.691 109.931 138.36 110.262C139.186 110.665 139.99 111.114 140.767 111.604C141.723 112.218 142.681 112.84 143.36 113.757C143.775 113.736 144.174 113.589 144.504 113.336C144.766 113.542 145.082 113.698 145.328 113.927C145.667 114.281 145.895 114.727 145.981 115.209H145.878C145.89 115.438 145.9 115.667 145.912 115.897C145.921 115.956 145.912 116.015 145.887 116.069C145.862 116.103 145.83 116.132 145.794 116.153L145.264 116.512C144.879 116.772 144.455 117.1 144.434 117.566C144.423 117.702 144.464 117.836 144.549 117.943C144.679 118.063 144.844 118.138 145.02 118.156C145.942 118.35 146.885 118.539 147.819 118.414C148.262 118.354 148.721 118.207 149.01 117.864C149.275 117.551 149.354 117.126 149.426 116.722C149.541 116.034 149.638 115.331 149.713 114.633C149.736 114.159 149.833 113.691 149.999 113.246C150.011 113.207 150.038 113.174 150.073 113.153C150.112 113.136 150.158 113.153 150.2 113.136C150.241 113.119 150.269 113.055 150.282 113.004C150.452 112.325 150.535 111.627 150.528 110.927C150.536 110.745 150.509 110.564 150.447 110.392C150.375 110.249 150.271 110.124 150.144 110.026C150.016 109.927 149.869 109.859 149.712 109.825C149.398 109.761 149.08 109.724 148.761 109.712C148.494 109.686 148.23 109.638 147.972 109.567C147.867 109.528 147.755 109.513 147.643 109.524C147.588 109.532 147.538 109.559 147.501 109.601C147.464 109.643 147.444 109.697 147.444 109.753C147.45 109.793 147.464 109.831 147.485 109.865L147.217 109.811C147.001 109.772 146.701 109.677 146.377 109.598C146.377 109.543 146.38 109.486 146.387 109.426C146.388 109.365 146.371 109.304 146.339 109.252C146.306 109.2 146.26 109.158 146.205 109.131L141.663 106.703L140.814 106.249C138.954 105.254 137.032 104.334 135.166 103.339C135.043 103.377 134.939 103.234 134.903 103.107C134.867 102.98 134.841 102.828 134.723 102.772C134.664 102.744 134.587 102.746 134.551 102.696C134.52 102.651 134.508 102.596 134.518 102.543C134.578 101.637 135.227 100.802 135.098 99.9043C135.043 99.521 134.845 99.1428 134.926 98.7663C134.986 98.5067 135.172 98.2953 135.27 98.0477C135.493 97.4942 135.27 96.8289 135.514 96.2874C135.676 95.9315 135.787 95.554 135.842 95.1665C135.957 94.3945 136.189 93.6444 136.53 92.9421C136.694 92.5878 136.91 92.2594 137.169 91.9673C137.305 91.8195 137.458 91.6871 137.589 91.5341C137.984 91.0614 138.13 90.4322 138.242 89.8151C138.445 88.7131 138.586 87.5699 138.331 86.4766C138.245 86.1053 138.115 85.7357 138.12 85.354C138.12 84.8968 138.304 84.3724 138.082 84.0063C138.31 83.8228 138.463 83.5614 138.51 83.2722C138.513 83.1682 138.534 83.0654 138.57 82.968C138.646 82.8619 138.744 82.7738 138.857 82.7101C139.035 82.5748 139.17 82.3922 139.249 82.1833C139.327 81.9745 139.345 81.7477 139.301 81.5291C139.536 81.6357 139.784 81.3967 139.896 81.1612C140.007 80.9257 140.092 80.6455 140.331 80.5389C140.492 80.4701 140.674 80.5114 140.846 80.4667C141.12 80.3962 141.286 80.1229 141.479 79.9217C141.871 79.4988 142.426 79.2805 142.94 79.0209C144.463 78.2456 145.704 77.0199 146.92 75.8131C147.554 75.2246 148.129 74.5764 148.639 73.8775C148.775 73.6763 148.898 73.4683 149.015 73.2551L149.046 73.2397L149.057 73.2775C149.075 73.3531 149.098 73.4288 149.12 73.5027C149.175 73.6746 149.237 73.8585 149.292 74.0339C149.478 74.5496 149.679 75.0997 150.057 75.49C150.173 75.609 150.305 75.7114 150.449 75.7942C150.762 75.9621 151.105 76.065 151.458 76.0968C151.592 76.114 151.728 76.1243 151.864 76.1312C152 76.138 152.135 76.1432 152.27 76.1466L155.051 76.2206C154.095 74.835 154.02 73.0334 154.083 71.347C154.243 67.0149 155.087 62.6433 154.303 58.3799C154.209 57.8642 154.083 57.3485 153.769 56.9342C153.356 56.3927 152.679 56.1314 152.019 55.9784C151.358 55.8254 150.673 55.7515 150.055 55.4747C149.54 55.2392 149.065 54.861 148.508 54.7372C148.098 54.6685 147.678 54.6754 147.27 54.7578C146.768 54.8323 146.269 54.9206 145.773 55.0226L145.653 55.0484H145.658L145.575 55.0673H145.553L145.479 55.0845H145.452L145.383 55.1034L145.352 55.112L145.288 55.1326L145.252 55.1446L145.194 55.1635L145.156 55.179L145.101 55.1996L145.06 55.2168L145.01 55.2392L144.969 55.2598L144.922 55.2822L144.881 55.3062L144.838 55.3303L144.797 55.3578L144.757 55.3836L144.716 55.4128L144.682 55.4403L144.642 55.4747L144.609 55.5039C144.596 55.5162 144.583 55.5295 144.571 55.5435L144.542 55.5727C144.529 55.588 144.516 55.604 144.504 55.6208C144.504 55.6294 144.489 55.638 144.482 55.6483C144.475 55.6586 144.451 55.693 144.436 55.7188V55.7291C144.397 55.7937 144.365 55.8623 144.341 55.9337C144.329 55.9698 144.317 56.0059 144.308 56.042C144.291 56.1155 144.278 56.1902 144.271 56.2655C144.271 56.3033 144.271 56.3428 144.262 56.3807C144.262 56.4563 144.262 56.5336 144.262 56.6093C144.269 56.7384 144.283 56.8669 144.305 56.9944C143.695 57.3547 143.187 57.8637 142.827 58.4738C142.468 59.0839 142.269 59.7753 142.249 60.4832C142.229 61.1911 142.389 61.8926 142.713 62.5219C143.038 63.1513 143.517 63.6881 144.106 64.0821C144.114 64.15 144.119 64.2183 144.119 64.2867V64.3314C144.11 64.5746 144.084 64.8169 144.044 65.0569C143.364 64.9249 142.673 64.8633 141.981 64.8729C141.568 64.8729 141.152 64.9107 140.736 64.9434C140.29 64.4054 139.875 63.843 139.492 63.2587L138.574 61.9127C138.258 61.4728 137.971 61.0135 137.714 60.5374C137.489 60.1007 137.314 59.6366 137.063 59.2137C136.547 58.3421 135.704 57.6012 135.6 56.5921L135.357 56.642C135.225 56.4253 135.058 56.1967 134.996 56.0712C134.664 55.3551 134.408 54.606 134.233 53.8364C134.149 53.4376 134.085 53.0216 133.867 52.6778C133.718 52.463 133.538 52.2717 133.332 52.1105C133.001 51.7983 132.612 51.5531 132.187 51.3884C131.998 51.3195 131.796 51.2901 131.595 51.3019C131.393 51.3138 131.197 51.3666 131.017 51.4572C130.961 51.4312 130.903 51.4083 130.845 51.3884C130.632 51.3075 130.403 51.2789 130.176 51.3053C129.95 51.3316 129.734 51.412 129.545 51.5397C129.184 51.8165 129.029 52.291 128.974 52.7431C128.879 53.3687 128.986 54.0083 129.28 54.5687C129.624 55.1842 130.24 55.6002 130.748 56.0884C131.102 56.4314 131.413 56.8172 131.672 57.2368C131.751 58.1654 131.728 59.1 131.601 60.0234C131.536 60.4188 131.429 60.8073 131.398 61.2061C131.273 62.6467 132.022 64.0873 131.754 65.5038C131.71 65.7168 131.733 65.9382 131.82 66.1375C131.907 66.3368 132.054 66.504 132.241 66.6161C132.626 66.8241 133.076 66.8516 133.499 66.9599C134.329 67.173 135.046 67.7042 135.885 67.9019C136.272 67.9948 136.674 68.012 137.059 68.1151L137.119 68.134C136.823 68.4697 136.611 68.8718 136.502 69.3064C136.33 70.0284 136.492 70.8003 136.32 71.5223C136.179 72.1171 135.825 72.6363 135.476 73.14C134.804 74.1118 134.132 75.086 133.458 76.0624C133.007 76.7472 132.51 77.4003 131.971 78.017C131.044 79.0295 129.445 79.8323 128.974 81.0495C128.964 81.0202 128.95 80.991 128.94 80.9618C128.273 81.4517 128.024 82.3646 127.492 82.9989C127.233 83.3066 126.913 83.5559 126.633 83.8412C126.286 84.2096 125.968 84.6044 125.682 85.0223C124.891 86.119 124.096 87.221 123.53 88.4501C123.234 89.0896 123.006 89.7549 122.77 90.4167C121.845 93.0246 120.336 95.4983 119.708 98.1956C119.555 98.854 119.155 99.4488 119.095 100.123C119.028 100.841 119.356 101.532 119.696 102.167C120.212 103.136 120.786 104.078 121.244 105.075C121.513 105.656 121.747 106.256 122.048 106.824C122.376 107.443 122.779 108.017 123.123 108.627C123.96 110.193 124.441 111.924 124.886 113.631ZM136.26 64.3709L136.177 64.3297C135.869 64.1963 135.587 64.0095 135.343 63.7779C134.603 62.9871 134.285 61.7958 134.052 60.7316C134.025 60.6044 134.001 60.4789 133.979 60.3517C134.878 61.629 135.727 62.9493 136.26 64.3744V64.3709Z" fill="url(#paint0_linear_587_735)"/>
<path d="M132.882 54.0479C132.797 53.6508 132.736 53.2382 132.517 52.8978C132.368 52.6841 132.187 52.494 131.981 52.334C131.647 52.0239 131.258 51.7805 130.833 51.6171C130.62 51.5371 130.391 51.509 130.165 51.535C129.939 51.561 129.722 51.6404 129.533 51.7667C129.17 52.0417 129.017 52.5127 128.96 52.97C128.865 53.5917 128.973 54.2275 129.266 54.7836C129.619 55.3956 130.227 55.8048 130.738 56.293C131.109 56.6506 131.431 57.0552 131.697 57.4963C131.818 57.7251 131.965 57.9396 132.134 58.1358C132.219 58.232 132.326 58.307 132.445 58.355C132.564 58.4031 132.693 58.4228 132.821 58.4126C133.036 58.3559 133.23 58.2411 133.384 58.0808C133.593 57.8969 134.157 57.5651 134.174 57.278C134.188 57.0425 133.748 56.5096 133.64 56.2878C133.309 55.5699 133.055 54.8191 132.882 54.0479Z" fill="#FBBEBE"/>
<path opacity="0.1" d="M132.882 54.0479C132.797 53.6508 132.736 53.2382 132.517 52.8978C132.368 52.6841 132.187 52.494 131.981 52.334C131.647 52.0239 131.258 51.7805 130.833 51.6171C130.62 51.5371 130.391 51.509 130.165 51.535C129.939 51.561 129.722 51.6404 129.533 51.7667C129.17 52.0417 129.017 52.5127 128.96 52.97C128.865 53.5917 128.973 54.2275 129.266 54.7836C129.619 55.3956 130.227 55.8048 130.738 56.293C131.109 56.6506 131.431 57.0552 131.697 57.4963C131.818 57.7251 131.965 57.9396 132.134 58.1358C132.219 58.232 132.326 58.307 132.445 58.355C132.564 58.4031 132.693 58.4228 132.821 58.4126C133.036 58.3559 133.23 58.2411 133.384 58.0808C133.593 57.8969 134.157 57.5651 134.174 57.278C134.188 57.0425 133.748 56.5096 133.64 56.2878C133.309 55.5699 133.055 54.8191 132.882 54.0479Z" fill="black"/>
<path d="M144.772 65.3645C143.866 65.1215 142.93 65.0058 141.991 65.0207C140.425 65.0431 138.812 65.423 137.32 64.9416C136.936 64.8109 136.563 64.6518 136.203 64.4655C135.894 64.3333 135.611 64.1477 135.367 63.9171C134.625 63.1315 134.305 61.947 134.075 60.8915C133.871 59.8294 133.753 58.7526 133.722 57.6717C133.335 57.8522 132.926 58.0292 132.502 57.9931C132.077 57.957 131.642 57.6304 131.642 57.2041C131.706 58.2046 131.752 59.2171 131.585 60.2039C131.52 60.5958 131.413 60.9826 131.384 61.378C131.257 62.81 132.008 64.2403 131.74 65.6516C131.695 65.8634 131.718 66.0839 131.805 66.282C131.893 66.4801 132.04 66.6456 132.227 66.7553C132.612 66.9633 133.064 66.9891 133.487 67.0991C134.317 67.3105 135.034 67.8383 135.876 68.036C136.263 68.1271 136.667 68.1443 137.052 68.2474C137.6 68.3936 138.101 68.7082 138.661 68.8061C139.081 68.8818 139.521 68.8302 139.938 68.8663C140.308 68.8973 140.669 68.9935 141.04 69.0038C141.948 69.0262 142.804 68.5139 143.406 67.8331C144.007 67.1524 144.391 66.1845 144.772 65.3645Z" fill="#F86D70"/>
<path opacity="0.1" d="M144.772 65.3645C143.866 65.1215 142.93 65.0058 141.991 65.0207C140.425 65.0431 138.812 65.423 137.32 64.9416C136.936 64.8109 136.563 64.6518 136.203 64.4655C135.894 64.3333 135.611 64.1477 135.367 63.9171C134.625 63.1315 134.305 61.947 134.075 60.8915C133.871 59.8294 133.753 58.7526 133.722 57.6717C133.335 57.8522 132.926 58.0292 132.502 57.9931C132.077 57.957 131.642 57.6304 131.642 57.2041C131.706 58.2046 131.752 59.2171 131.585 60.2039C131.52 60.5958 131.413 60.9826 131.384 61.378C131.257 62.81 132.008 64.2403 131.74 65.6516C131.695 65.8634 131.718 66.0839 131.805 66.282C131.893 66.4801 132.04 66.6456 132.227 66.7553C132.612 66.9633 133.064 66.9891 133.487 67.0991C134.317 67.3105 135.034 67.8383 135.876 68.036C136.263 68.1271 136.667 68.1443 137.052 68.2474C137.6 68.3936 138.101 68.7082 138.661 68.8061C139.081 68.8818 139.521 68.8302 139.938 68.8663C140.308 68.8973 140.669 68.9935 141.04 69.0038C141.948 69.0262 142.804 68.5139 143.406 67.8331C144.007 67.1524 144.391 66.1845 144.772 65.3645Z" fill="black"/>
<path d="M147.259 109.621C147.539 109.655 147.811 109.74 148.061 109.872C148.388 110.104 148.632 110.434 148.759 110.814C149.134 111.738 149.211 112.756 149.229 113.755C149.242 114.561 149.215 115.386 148.926 116.139C148.847 116.377 148.711 116.591 148.529 116.763C148.368 116.89 148.181 116.98 147.982 117.028C147.551 117.147 147.052 117.145 146.7 116.87C146.308 116.564 146.21 116.022 146.127 115.532C146.016 114.872 145.857 114.169 145.366 113.714C145.001 113.37 144.479 113.198 144.214 112.782C143.898 112.282 144.064 111.628 144.266 111.071C144.438 110.588 144.697 109.61 145.202 109.363C145.708 109.115 146.734 109.526 147.259 109.621Z" fill="#FBBEBE"/>
<path d="M128.639 111.993C128.79 112.533 129.059 113.032 129.426 113.456C129.65 113.714 129.93 114.027 129.813 114.346C129.764 114.455 129.691 114.552 129.601 114.63C127.941 116.253 125.618 117.037 123.315 117.332C123.278 117.342 123.24 117.342 123.203 117.332C123.136 117.303 123.119 117.217 123.112 117.143C123.074 116.903 123.074 116.659 123.112 116.419C123.224 115.857 123.717 115.46 124.2 115.149C124.683 114.838 125.211 114.539 125.479 114.032C125.814 113.403 125.673 112.582 126.072 111.993C126.395 111.513 126.997 111.305 127.569 111.219C127.767 111.188 128.188 110.972 128.357 111.071C128.525 111.171 128.58 111.795 128.639 111.993Z" fill="#FBBEBE"/>
<path d="M147.485 109.562C147.485 109.506 147.505 109.453 147.542 109.411C147.579 109.369 147.629 109.342 147.685 109.335C147.796 109.324 147.908 109.338 148.013 109.376C148.271 109.448 148.535 109.497 148.802 109.523C149.122 109.534 149.441 109.571 149.754 109.634C149.911 109.667 150.059 109.735 150.187 109.832C150.314 109.929 150.419 110.054 150.492 110.196C150.553 110.367 150.581 110.548 150.573 110.729C150.58 111.425 150.497 112.118 150.327 112.792C150.313 112.844 150.292 112.904 150.243 112.923C150.193 112.942 150.157 112.923 150.117 112.942C150.099 112.952 150.084 112.965 150.071 112.981C150.058 112.997 150.049 113.015 150.043 113.035C149.877 113.475 149.78 113.939 149.756 114.41C149.68 115.097 149.584 115.795 149.469 116.483C149.402 116.885 149.318 117.308 149.053 117.618C148.762 117.961 148.303 118.104 147.86 118.164C146.925 118.288 145.981 118.101 145.058 117.908C144.882 117.891 144.716 117.816 144.585 117.697C144.5 117.591 144.459 117.457 144.47 117.322C144.491 116.86 144.917 116.533 145.3 116.275L145.831 115.919C145.868 115.899 145.9 115.87 145.924 115.835C145.95 115.782 145.959 115.722 145.95 115.663L145.916 114.975C146.267 114.982 146.611 115.083 146.91 115.269C147.208 115.455 147.451 115.718 147.612 116.031C147.685 116.177 147.755 116.347 147.906 116.404C148.005 116.426 148.108 116.41 148.194 116.358C148.281 116.305 148.343 116.221 148.369 116.124C148.414 115.927 148.409 115.722 148.353 115.527C148.042 113.865 148.116 112.156 147.927 110.477C147.915 110.287 147.856 110.104 147.755 109.944C147.674 109.829 147.504 109.717 147.485 109.562Z" fill="#F86D70"/>
<path d="M126.542 56.6247H130.321C131.332 56.6247 132.151 55.805 132.151 54.7939V54.7922C132.151 53.781 131.332 52.9613 130.321 52.9613H126.542C125.531 52.9613 124.711 53.781 124.711 54.7922V54.7939C124.711 55.805 125.531 56.6247 126.542 56.6247Z" fill="#6C63FF"/>
<path d="M128.488 55.9372C129.12 55.9372 129.633 55.4246 129.633 54.7922C129.633 54.1599 129.12 53.6473 128.488 53.6473C127.855 53.6473 127.343 54.1599 127.343 54.7922C127.343 55.4246 127.855 55.9372 128.488 55.9372Z" fill="white"/>
<path d="M124.36 116.007C124.283 116.136 124.161 116.236 124.089 116.368C124.048 116.431 124.031 116.507 124.042 116.581C124.053 116.655 124.09 116.723 124.147 116.772C124.224 116.806 124.311 116.814 124.393 116.796C126.053 116.589 127.612 115.883 128.863 114.771C129.071 114.596 129.255 114.394 129.411 114.171C129.557 113.949 129.681 113.678 129.927 113.585C130.076 114.23 130.154 114.89 130.157 115.553C130.157 115.99 130.095 116.487 129.739 116.739C129.596 116.828 129.439 116.892 129.275 116.928L128.498 117.148C128.361 117.2 128.212 117.214 128.067 117.19C127.976 117.166 127.895 117.107 127.8 117.09C127.698 117.079 127.594 117.093 127.498 117.129L126.825 117.325C126.598 117.384 126.376 117.462 126.162 117.558C125.969 117.649 125.792 117.766 125.605 117.867C125.291 118.024 124.966 118.156 124.632 118.262L123.451 118.673C123.127 118.8 122.79 118.886 122.445 118.931C122.208 118.952 121.966 118.931 121.73 118.971C121.558 119.002 121.386 119.067 121.197 119.081C120.899 119.09 120.605 119.003 120.36 118.833C120.264 118.779 120.181 118.705 120.116 118.616C119.944 118.353 120.094 118.006 120.259 117.74C120.549 117.234 120.963 116.809 121.462 116.505C121.668 116.392 121.89 116.309 122.101 116.206C122.705 115.914 123.16 115.426 123.729 115.092C124.267 114.778 124.613 115.591 124.36 116.007Z" fill="#F86D70"/>
<path d="M140.963 68.409C141.588 68.8376 142.303 69.1159 143.053 69.2221C143.446 69.2707 143.841 69.292 144.236 69.2857C145.885 69.284 147.531 69.1466 149.158 68.8748C148.511 68.1614 147.856 67.3981 147.611 66.4681C147.489 65.975 147.464 65.4633 147.535 64.9605C147.634 64.3181 147.788 63.6855 147.996 63.0695C147.302 63.1059 146.606 63.0881 145.916 63.0162C145.522 62.975 144.556 62.6174 144.214 62.889C143.872 63.1606 144.135 64.0356 144.14 64.4465C144.141 64.4614 144.141 64.4763 144.14 64.4912C144.123 65.117 143.988 65.7341 143.743 66.31C143.251 67.4205 142.185 68.335 140.963 68.409Z" fill="#FBBEBE"/>
<path opacity="0.1" d="M144.141 64.438C144.637 64.7621 145.197 64.9759 145.783 65.0649C146.369 65.1538 146.967 65.1159 147.537 64.9537C147.636 64.3113 147.79 63.6787 147.997 63.0627C147.304 63.0991 146.608 63.0813 145.917 63.0094C145.524 62.9682 144.557 62.6106 144.215 62.8822C143.873 63.1538 144.136 64.0271 144.141 64.438Z" fill="black"/>
<path d="M146.411 64.921C148.7 64.921 150.556 63.0654 150.556 60.7763C150.556 58.4873 148.7 56.6316 146.411 56.6316C144.122 56.6316 142.266 58.4873 142.266 60.7763C142.266 63.0654 144.122 64.921 146.411 64.921Z" fill="#FBBEBE"/>
<path d="M128.826 81.7474C128.825 82.0818 128.91 82.4107 129.074 82.7021C129.238 82.9935 129.475 83.2374 129.761 83.4098C130.08 83.5773 130.422 83.6978 130.776 83.7673C132.667 84.2246 134.613 84.5925 136.56 84.4807C136.983 84.4772 137.4 84.3895 137.788 84.2229C137.981 84.1373 138.15 84.0066 138.282 83.8418C138.414 83.6769 138.505 83.4828 138.546 83.2757C138.548 83.1728 138.568 83.071 138.604 82.9748C138.68 82.8693 138.778 82.7818 138.891 82.7187C139.069 82.5852 139.205 82.4043 139.283 82.1968C139.362 81.9893 139.381 81.7638 139.337 81.5463C139.572 81.6528 139.82 81.4139 139.931 81.1801C140.043 80.9463 140.129 80.6644 140.366 80.563C140.528 80.4942 140.71 80.5354 140.882 80.4907C141.155 80.4203 141.322 80.1469 141.515 79.9492C141.907 79.5298 142.465 79.3132 142.978 79.0536C144.504 78.2852 145.747 77.0663 146.966 75.8681C147.6 75.2844 148.175 74.6408 148.685 73.9462C148.822 73.7465 148.948 73.54 149.063 73.3273C149.431 72.6216 149.749 71.8916 150.017 71.1424C150.172 70.7401 150.328 70.3172 150.265 69.8909C150.265 69.8531 150.251 69.8153 150.242 69.7757C150.163 69.5022 150.035 69.2449 149.866 69.0159C149.445 68.397 148.893 67.8125 148.168 67.62C147.442 67.4275 146.72 67.6595 145.983 67.816C145.739 67.8707 145.491 67.9086 145.242 67.9294C144.461 67.9844 143.695 67.7747 142.935 67.5667L142.113 67.3398C141.702 67.2263 141.496 66.7295 141.082 66.6418C140.895 66.6138 140.705 66.6237 140.523 66.6711C139.679 66.8309 138.826 67.0389 138.082 67.4687C137.915 67.5639 137.757 67.6719 137.607 67.7919C137.067 68.1953 136.678 68.7687 136.504 69.4199C136.332 70.1367 136.493 70.9034 136.321 71.6203C136.18 72.2117 135.825 72.7274 135.477 73.2259L133.452 76.126C133.001 76.8056 132.503 77.4534 131.964 78.0651C130.874 79.2496 128.855 80.1401 128.826 81.7474Z" fill="#F86D70"/>
<path d="M134.231 54.0479C134.147 53.6508 134.085 53.2382 133.867 52.8978C133.717 52.6841 133.536 52.494 133.33 52.334C132.997 52.0239 132.607 51.7805 132.182 51.6171C131.969 51.5371 131.74 51.509 131.514 51.535C131.288 51.561 131.072 51.6404 130.882 51.7667C130.52 52.0417 130.367 52.5127 130.31 52.97C130.215 53.5917 130.322 54.2275 130.616 54.7836C130.96 55.3956 131.577 55.8048 132.088 56.293C132.458 56.6506 132.781 57.0552 133.047 57.4963C133.168 57.7251 133.315 57.9396 133.483 58.1358C133.569 58.232 133.675 58.307 133.795 58.355C133.914 58.4031 134.043 58.4228 134.171 58.4126C134.385 58.3559 134.58 58.2411 134.733 58.0808C134.943 57.8969 135.507 57.5651 135.524 57.278C135.538 57.0425 135.098 56.5096 134.989 56.2878C134.659 55.5699 134.405 54.8191 134.231 54.0479Z" fill="#FBBEBE"/>
<path d="M119.667 102.051C120.183 103.014 120.757 103.942 121.223 104.939C121.493 105.519 121.727 106.114 122.027 106.677C122.356 107.291 122.76 107.862 123.104 108.467C123.963 109.997 124.45 111.723 124.895 113.423C126.139 113.238 127.337 112.817 128.422 112.182C128.495 112.141 128.566 112.095 128.634 112.046C128.925 111.838 129.167 111.57 129.346 111.26C128.935 109.713 128.514 108.127 127.676 106.753C127.403 106.306 127.09 105.893 126.817 105.445C126.004 104.164 125.835 102.55 124.905 101.352C124.816 101.231 124.769 101.085 124.769 100.936C124.769 100.786 124.816 100.64 124.905 100.52C125.012 100.38 125.184 100.248 125.151 100.074C125.127 99.9489 124.996 99.8354 125.046 99.7185C125.07 99.6618 125.129 99.6309 125.173 99.5896C125.332 99.4452 125.311 99.1959 125.326 98.9828C125.361 98.4395 125.686 97.9634 126 97.5198C126.064 97.4154 126.148 97.3248 126.248 97.2534C126.332 97.2018 126.432 97.1777 126.516 97.1262C126.812 96.9422 126.791 96.509 126.934 96.1875C127.119 95.7647 127.587 95.5498 127.895 95.2077C128.285 94.771 128.383 94.1642 128.796 93.7825C128.838 93.7427 128.883 93.7059 128.931 93.6725C128.752 94.3222 128.671 94.9948 128.689 95.6684C128.649 97.9788 129.227 100.368 128.957 102.663C128.744 104.482 129.865 106.297 131.453 107.209C132.076 107.537 132.727 107.811 133.397 108.027C134.391 108.379 135.385 108.742 136.359 109.149C137.047 109.435 137.735 109.744 138.398 110.073C139.224 110.473 140.028 110.918 140.805 111.407C141.763 112.015 142.722 112.634 143.401 113.543C144.059 113.526 144.663 113.131 145.079 112.62C145.495 112.11 145.754 111.493 145.997 110.882C146.208 110.354 146.418 109.813 146.433 109.244C146.433 109.183 146.416 109.123 146.384 109.071C146.352 109.019 146.306 108.977 146.251 108.95L141.702 106.543L140.843 106.093C138.981 105.104 137.061 104.19 135.189 103.203C135.063 103.239 134.96 103.097 134.924 102.973C134.888 102.849 134.862 102.694 134.744 102.639C134.683 102.612 134.608 102.612 134.572 102.564C134.542 102.519 134.531 102.465 134.541 102.412C134.601 101.512 135.251 100.683 135.12 99.7907C135.065 99.4091 134.867 99.0343 134.948 98.6613C135.008 98.4017 135.194 98.192 135.292 97.9462C135.514 97.3961 135.292 96.7428 135.536 96.1979C135.699 95.8444 135.81 95.4692 135.864 95.0839C135.982 94.3167 136.216 93.5722 136.561 92.8766C136.725 92.5239 136.941 92.1973 137.2 91.907C137.338 91.7609 137.491 91.6285 137.62 91.4773C138.017 91.008 138.161 90.3822 138.275 89.7788C138.477 88.6838 138.618 87.544 138.364 86.4627C138.278 86.0931 138.147 85.7269 138.152 85.347C138.152 84.8468 138.378 84.2606 138.03 83.8978C137.884 83.7677 137.706 83.6776 137.515 83.6365C136.706 83.4185 135.881 83.2661 135.048 83.181L131.256 82.6876C130.817 82.6587 130.389 82.5473 129.992 82.3593C129.476 82.0756 129.132 81.5478 128.926 80.9977C128.259 81.4842 128.008 82.3902 127.477 83.0194C127.217 83.3271 126.898 83.5746 126.617 83.8566C126.269 84.222 125.951 84.6146 125.665 85.0307C124.873 86.1189 124.075 87.2157 123.508 88.4345C123.214 89.0688 122.992 89.7307 122.748 90.3874C121.821 92.978 120.31 95.4363 119.683 98.1129C119.528 98.7679 119.127 99.3575 119.067 100.028C118.997 100.738 119.325 101.426 119.667 102.051Z" fill="#434175"/>
<path opacity="0.1" d="M139.56 80.5458C139.653 80.7181 139.7 80.9107 139.7 81.1062C139.615 80.6867 139.038 80.4547 139.002 80.0404C138.985 79.8495 139.019 79.8581 139.138 79.9596C139.318 80.1091 139.395 80.3807 139.56 80.5458Z" fill="black"/>
<path opacity="0.1" d="M137.805 81.8178C137.926 81.9213 138.017 82.0555 138.068 82.2063C138.165 82.4184 138.183 82.6577 138.12 82.8819C138.036 82.8424 138.006 82.7392 137.981 82.6481C137.942 82.5074 137.884 82.3727 137.809 82.2476C137.74 82.1393 137.425 81.8814 137.429 81.7628C137.424 81.584 137.721 81.7542 137.805 81.8178Z" fill="black"/>
<path opacity="0.1" d="M137.602 67.792C137.869 68.0203 138.162 68.2154 138.475 68.373C139.297 68.789 140.206 69.0074 141.033 69.4045C141.441 69.6116 141.837 69.8412 142.219 70.0921C143.04 70.6078 143.858 71.1236 144.676 71.6479C144.873 71.7615 145.055 71.8996 145.218 72.0587C145.513 72.375 145.512 72.9183 145.781 73.2621C145.93 73.432 146.114 73.5688 146.319 73.6635C146.524 73.7583 146.747 73.8089 146.973 73.8122C147.425 73.816 147.875 73.7404 148.302 73.5887C148.56 73.5121 148.814 73.4197 149.061 73.3119C149.32 73.2028 149.565 73.0632 149.79 72.8959C150.016 72.7375 150.208 72.5361 150.355 72.3033C150.503 72.0706 150.603 71.8111 150.65 71.5396C150.679 71.1644 150.63 70.7871 150.504 70.4325C150.436 70.2015 150.348 69.9767 150.242 69.7603C150.182 69.6375 150.112 69.5197 150.033 69.4079C149.469 68.6085 148.475 68.2321 147.514 68.0447C147.007 67.9467 146.491 67.8865 145.983 67.8006C145.738 67.8553 145.491 67.8932 145.242 67.914C144.461 67.969 143.694 67.7593 142.935 67.5513L142.113 67.3244C141.702 67.2109 141.496 66.7141 141.081 66.6264C140.895 66.5984 140.705 66.6083 140.523 66.6557C139.679 66.8155 138.826 67.0235 138.082 67.4533C137.913 67.5532 137.753 67.6664 137.602 67.792Z" fill="black"/>
<path d="M135.6 56.7914C135.704 57.7937 136.55 58.5294 137.066 59.3941C137.317 59.8153 137.492 60.276 137.717 60.711C137.975 61.187 138.262 61.6463 138.577 62.0862L139.497 63.4219C140.038 64.2076 140.585 65.0001 141.276 65.6567C142.479 65.8613 143.494 66.757 144.637 67.1919C145.553 67.5357 146.55 67.5873 147.511 67.7747C148.472 67.962 149.466 68.3368 150.03 69.1379C150.24 69.4545 150.399 69.8027 150.501 70.1693C150.626 70.5234 150.676 70.9001 150.647 71.2747C150.6 71.5465 150.5 71.8064 150.352 72.0394C150.205 72.2725 150.013 72.4741 149.787 72.6328C149.335 72.9461 148.832 73.1788 148.3 73.3204C147.873 73.4713 147.424 73.5469 146.971 73.5439C146.745 73.5404 146.522 73.4897 146.317 73.395C146.111 73.3002 145.928 73.1636 145.778 72.9938C145.51 72.65 145.512 72.1016 145.216 71.7904C145.054 71.6313 144.872 71.4932 144.675 71.3796L142.218 69.8324C141.836 69.5815 141.44 69.3519 141.032 69.1448C140.205 68.7408 139.296 68.5225 138.474 68.1133C137.652 67.7042 136.887 67.0114 136.726 66.1054C136.225 63.3222 134.298 60.9757 132.651 58.6773C132.705 58.667 132.689 58.5432 132.708 58.4916C132.947 57.9522 133.375 57.5191 133.911 57.2745C134.441 56.9874 135.029 56.9135 135.6 56.7914Z" fill="#F86D70"/>
<path d="M144.283 56.8121C144.252 56.5104 144.312 56.2063 144.455 55.9388C144.728 55.485 145.299 55.3251 145.818 55.2185C146.337 55.1119 146.815 55.0294 147.317 54.9572C147.725 54.8751 148.145 54.8675 148.556 54.9348C149.117 55.0586 149.588 55.4351 150.104 55.6672C150.722 55.9439 151.41 56.011 152.07 56.1691C152.73 56.3273 153.409 56.58 153.824 57.1181C154.138 57.5255 154.264 58.0464 154.358 58.5535C155.144 62.7876 154.298 67.13 154.138 71.4329C154.075 73.1073 154.15 74.8968 155.108 76.2738L152.321 76.1999C151.608 76.181 150.841 76.1431 150.281 75.7031C149.786 75.3163 149.552 74.6922 149.342 74.1026C149.152 73.6446 149.032 73.1608 148.984 72.6672C148.942 71.6563 149.516 70.6644 149.328 69.6691C149.189 68.9264 148.641 68.3248 148.07 67.8383C147.499 67.3518 146.849 66.9272 146.38 66.3341C145.546 65.2768 145.386 63.8345 145.49 62.4919C145.551 61.6943 145.696 60.8949 145.625 60.0972C145.59 59.4869 145.37 58.9018 144.994 58.4194C144.556 57.8899 144.324 57.5599 144.283 56.8121Z" fill="#434175"/>
<path opacity="0.1" d="M144.454 55.9388C144.723 55.4918 145.28 55.3302 145.79 55.2254C145.519 55.3206 145.287 55.5017 145.128 55.7411C144.986 56.0096 144.927 56.3139 144.956 56.6161C144.994 57.3639 145.226 57.694 145.67 58.2234C146.047 58.7051 146.268 59.2906 146.302 59.9013C146.371 60.6989 146.228 61.4966 146.167 62.296C146.062 63.6368 146.222 65.0809 147.057 66.1381C147.525 66.7312 148.169 67.1541 148.747 67.6423C149.325 68.1305 149.866 68.7305 150.005 69.4731C150.191 70.4667 149.617 71.4604 149.661 72.4712C149.707 72.9643 149.827 73.4477 150.017 73.9049C150.229 74.4963 150.463 75.1203 150.956 75.5071C151.516 75.9472 152.285 75.985 152.998 76.0039L154.972 76.0555C155.015 76.1277 155.061 76.1999 155.109 76.2704L152.323 76.1964C151.609 76.1775 150.843 76.1397 150.282 75.6996C149.787 75.3128 149.553 74.6888 149.343 74.0992C149.154 73.6411 149.033 73.1573 148.986 72.6637C148.943 71.6529 149.517 70.661 149.33 69.6656C149.19 68.923 148.642 68.3213 148.071 67.8348C147.501 67.3483 146.851 66.9237 146.381 66.3306C145.548 65.2734 145.388 63.8311 145.491 62.4885C145.553 61.6908 145.697 60.8915 145.627 60.0938C145.592 59.4835 145.372 58.8983 144.996 58.416C144.552 57.8865 144.32 57.5564 144.281 56.8086C144.251 56.5079 144.312 56.2051 144.454 55.9388Z" fill="black"/>
<path opacity="0.1" d="M123.52 99.5742L128.639 112.046C128.93 111.838 129.172 111.57 129.351 111.261C128.94 109.713 128.519 108.127 127.681 106.753C127.408 106.306 127.095 105.894 126.822 105.445C126.009 104.164 125.84 102.55 124.91 101.352C124.821 101.231 124.774 101.085 124.774 100.936C124.774 100.786 124.821 100.64 124.91 100.52C125.017 100.38 125.189 100.248 125.156 100.074C125.132 99.949 125.001 99.8355 125.051 99.7186C125.075 99.6619 125.134 99.631 125.178 99.5897C125.337 99.4453 125.316 99.196 125.331 98.9829C125.366 98.4396 125.691 97.9635 126.005 97.5199C126.069 97.4155 126.153 97.3249 126.253 97.2535C126.337 97.2019 126.437 97.1778 126.521 97.1263C126.817 96.9423 126.796 96.5091 126.939 96.1877C127.124 95.7648 127.592 95.5499 127.9 95.2078C128.29 94.7711 128.388 94.1643 128.801 93.7827L128.837 93.6933L128.45 91.2866L123.52 99.5742Z" fill="black"/>
<path d="M168.186 114.47C171.41 114.47 174.023 113.968 174.023 113.348C174.023 112.728 171.41 112.225 168.186 112.225C164.963 112.225 162.35 112.728 162.35 113.348C162.35 113.968 164.963 114.47 168.186 114.47Z" fill="#6C63FF"/>
<path d="M168.285 113.758C168.66 113.758 168.964 113.36 168.964 112.87C168.964 112.379 168.66 111.981 168.285 111.981C167.909 111.981 167.605 112.379 167.605 112.87C167.605 113.36 167.909 113.758 168.285 113.758Z" fill="#3F3D56"/>
<path d="M168.285 112.672C168.66 112.672 168.964 112.274 168.964 111.783C168.964 111.292 168.66 110.894 168.285 110.894C167.909 110.894 167.605 111.292 167.605 111.783C167.605 112.274 167.909 112.672 168.285 112.672Z" fill="#3F3D56"/>
<path d="M168.285 111.584C168.66 111.584 168.964 111.186 168.964 110.695C168.964 110.204 168.66 109.806 168.285 109.806C167.909 109.806 167.605 110.204 167.605 110.695C167.605 111.186 167.909 111.584 168.285 111.584Z" fill="#3F3D56"/>
<path d="M168.285 110.497C168.66 110.497 168.964 110.099 168.964 109.609C168.964 109.118 168.66 108.72 168.285 108.72C167.909 108.72 167.605 109.118 167.605 109.609C167.605 110.099 167.909 110.497 168.285 110.497Z" fill="#3F3D56"/>
<path d="M168.285 109.409C168.66 109.409 168.964 109.011 168.964 108.52C168.964 108.03 168.66 107.632 168.285 107.632C167.909 107.632 167.605 108.03 167.605 108.52C167.605 109.011 167.909 109.409 168.285 109.409Z" fill="#3F3D56"/>
<path d="M168.285 108.323C168.66 108.323 168.964 107.925 168.964 107.434C168.964 106.943 168.66 106.545 168.285 106.545C167.909 106.545 167.605 106.943 167.605 107.434C167.605 107.925 167.909 108.323 168.285 108.323Z" fill="#3F3D56"/>
<path d="M168.285 107.236C168.66 107.236 168.964 106.838 168.964 106.347C168.964 105.856 168.66 105.459 168.285 105.459C167.909 105.459 167.605 105.856 167.605 106.347C167.605 106.838 167.909 107.236 168.285 107.236Z" fill="#3F3D56"/>
<path d="M165.74 98.9072C165.647 98.7889 165.563 98.6642 165.487 98.5341L167.272 98.2402L165.341 98.2557C165.157 97.8526 165.056 97.416 165.045 96.9727C165.034 96.5294 165.114 96.0885 165.279 95.677L167.87 97.0196L165.481 95.2645C165.703 94.8757 166.004 94.5371 166.364 94.2699C166.724 94.0027 167.135 93.8126 167.571 93.7116C168.008 93.6106 168.461 93.6008 168.901 93.6828C169.342 93.7649 169.761 93.937 170.132 94.1884C170.503 94.4398 170.818 94.765 171.057 95.1438C171.297 95.5226 171.456 95.9468 171.524 96.3897C171.592 96.8327 171.567 97.2849 171.453 97.7181C171.338 98.1513 171.135 98.5561 170.856 98.9072C171.002 99.0905 171.126 99.2894 171.227 99.5003L168.91 100.704L171.382 99.875C171.496 100.211 171.554 100.564 171.554 100.919C171.555 101.649 171.309 102.358 170.856 102.932C171.234 103.412 171.468 103.988 171.534 104.595C171.599 105.203 171.492 105.816 171.225 106.365C170.958 106.914 170.542 107.378 170.025 107.702C169.507 108.026 168.909 108.197 168.298 108.197C167.687 108.197 167.089 108.026 166.571 107.702C166.054 107.378 165.638 106.914 165.371 106.365C165.104 105.816 164.997 105.203 165.063 104.595C165.128 103.988 165.363 103.412 165.74 102.932C165.289 102.358 165.044 101.649 165.044 100.919C165.044 100.19 165.289 99.4809 165.74 98.9072Z" fill="#6C63FF"/>
<path opacity="0.1" d="M171.554 100.919C171.555 101.649 171.309 102.358 170.856 102.932C171.234 103.412 171.468 103.988 171.534 104.595C171.599 105.202 171.492 105.816 171.225 106.365C170.958 106.914 170.542 107.378 170.025 107.702C169.507 108.026 168.909 108.197 168.298 108.197C167.687 108.197 167.089 108.026 166.571 107.702C166.054 107.378 165.638 106.914 165.371 106.365C165.104 105.816 164.997 105.202 165.063 104.595C165.128 103.988 165.363 103.412 165.74 102.932C165.304 102.378 171.554 100.554 171.554 100.919Z" fill="black"/>
<path d="M179.553 101.635C181.721 101.635 183.478 101.298 183.478 100.881C183.478 100.464 181.721 100.126 179.553 100.126C177.386 100.126 175.628 100.464 175.628 100.881C175.628 101.298 177.386 101.635 179.553 101.635Z" fill="#6C63FF"/>
<path d="M179.62 101.159C179.872 101.159 180.077 100.891 180.077 100.561C180.077 100.231 179.872 99.9628 179.62 99.9628C179.367 99.9628 179.163 100.231 179.163 100.561C179.163 100.891 179.367 101.159 179.62 101.159Z" fill="#3F3D56"/>
<path d="M179.62 100.429C179.872 100.429 180.077 100.161 180.077 99.8304C180.077 99.5 179.872 99.2322 179.62 99.2322C179.367 99.2322 179.163 99.5 179.163 99.8304C179.163 100.161 179.367 100.429 179.62 100.429Z" fill="#3F3D56"/>
<path d="M179.62 99.6964C179.872 99.6964 180.077 99.4285 180.077 99.0981C180.077 98.7677 179.872 98.4999 179.62 98.4999C179.367 98.4999 179.163 98.7677 179.163 99.0981C179.163 99.4285 179.367 99.6964 179.62 99.6964Z" fill="#3F3D56"/>
<path d="M179.62 98.9658C179.872 98.9658 180.077 98.6979 180.077 98.3675C180.077 98.0371 179.872 97.7693 179.62 97.7693C179.367 97.7693 179.163 98.0371 179.163 98.3675C179.163 98.6979 179.367 98.9658 179.62 98.9658Z" fill="#3F3D56"/>
<path d="M179.62 98.2351C179.872 98.2351 180.077 97.9673 180.077 97.6369C180.077 97.3065 179.872 97.0386 179.62 97.0386C179.367 97.0386 179.163 97.3065 179.163 97.6369C179.163 97.9673 179.367 98.2351 179.62 98.2351Z" fill="#3F3D56"/>
<path d="M179.62 97.5045C179.872 97.5045 180.077 97.2367 180.077 96.9063C180.077 96.5759 179.872 96.308 179.62 96.308C179.367 96.308 179.163 96.5759 179.163 96.9063C179.163 97.2367 179.367 97.5045 179.62 97.5045Z" fill="#3F3D56"/>
<path d="M179.62 96.7722C179.872 96.7722 180.077 96.5044 180.077 96.174C180.077 95.8436 179.872 95.5757 179.62 95.5757C179.367 95.5757 179.163 95.8436 179.163 96.174C179.163 96.5044 179.367 96.7722 179.62 96.7722Z" fill="#3F3D56"/>
<path d="M177.909 91.173C177.845 91.0941 177.788 91.0102 177.737 90.922L178.941 90.7243L177.643 90.7346C177.51 90.4481 177.441 90.1359 177.442 89.8201C177.441 89.5392 177.495 89.2608 177.6 89.0001L179.343 89.9043L177.736 88.7233C177.885 88.4605 178.087 88.2315 178.329 88.0506C178.571 87.8697 178.847 87.7408 179.142 87.6722C179.436 87.6035 179.741 87.5965 180.038 87.6516C180.335 87.7068 180.618 87.8228 180.868 87.9924C181.118 88.1621 181.33 88.3817 181.491 88.6374C181.652 88.8931 181.758 89.1793 181.803 89.4781C181.848 89.7769 181.831 90.0817 181.752 90.3734C181.673 90.6651 181.535 90.9374 181.346 91.173C181.443 91.2965 181.527 91.4302 181.595 91.5718L180.037 92.3815L181.698 91.8228C181.816 92.1688 181.845 92.5387 181.784 92.899C181.722 93.2592 181.572 93.5984 181.346 93.8857C181.601 94.2086 181.759 94.5967 181.804 95.0056C181.848 95.4145 181.777 95.8277 181.597 96.1978C181.418 96.568 181.138 96.8801 180.79 97.0985C180.441 97.317 180.038 97.4328 179.627 97.4328C179.215 97.4328 178.812 97.317 178.464 97.0985C178.115 96.8801 177.835 96.568 177.656 96.1978C177.476 95.8277 177.405 95.4145 177.449 95.0056C177.494 94.5967 177.653 94.2086 177.908 93.8857C177.604 93.5003 177.438 93.0237 177.438 92.5328C177.438 92.0419 177.604 91.5653 177.908 91.1799L177.909 91.173Z" fill="#6C63FF"/>
<path opacity="0.1" d="M181.817 92.526C181.818 93.0166 181.653 93.4931 181.35 93.8789C181.604 94.2017 181.763 94.5899 181.808 94.9988C181.852 95.4077 181.781 95.8209 181.601 96.191C181.422 96.5612 181.142 96.8733 180.793 97.0917C180.445 97.3101 180.042 97.426 179.631 97.426C179.219 97.426 178.816 97.3101 178.468 97.0917C178.119 96.8733 177.839 96.5612 177.66 96.191C177.48 95.8209 177.409 95.4077 177.453 94.9988C177.498 94.5899 177.657 94.2017 177.911 93.8789C177.616 93.5058 181.817 92.2801 181.817 92.526Z" fill="black"/>
</g>
<defs>
<linearGradient id="paint0_linear_587_735" x1="137.057" y1="119.335" x2="137.057" y2="51.318" gradientUnits="userSpaceOnUse">
<stop stop-color="#808080" stop-opacity="0.25"/>
<stop offset="0.54" stop-color="#808080" stop-opacity="0.12"/>
<stop offset="1" stop-color="#808080" stop-opacity="0.1"/>
</linearGradient>
<clipPath id="clip0_587_735">
<rect width="196.663" height="119.99" fill="white" transform="translate(0.223633)"/>
</clipPath>
</defs>
</svg>
