<svg width="35" height="35" viewBox="0 0 35 35" fill="none" xmlns="http://www.w3.org/2000/svg">
<path d="M26.25 11.6667H27.7083C29.2554 11.6667 30.7392 12.2813 31.8331 13.3753C32.9271 14.4693 33.5417 15.953 33.5417 17.5001C33.5417 19.0472 32.9271 20.5309 31.8331 21.6249C30.7392 22.7188 29.2554 23.3334 27.7083 23.3334H26.25" stroke="#273658" stroke-width="2" stroke-linecap="round" stroke-linejoin="round"/>
<path d="M2.91666 11.6667H26.25V24.7917C26.25 26.3388 25.6354 27.8226 24.5414 28.9165C23.4475 30.0105 21.9638 30.6251 20.4167 30.6251H8.74999C7.20289 30.6251 5.71916 30.0105 4.6252 28.9165C3.53124 27.8226 2.91666 26.3388 2.91666 24.7917V11.6667Z" stroke="#273658" stroke-width="2" stroke-linecap="round" stroke-linejoin="round"/>
<path d="M8.75 1.45825V5.83325" stroke="#273658" stroke-width="2" stroke-linecap="round" stroke-linejoin="round"/>
<path d="M14.5833 1.45825V5.83325" stroke="#273658" stroke-width="2" stroke-linecap="round" stroke-linejoin="round"/>
<path d="M20.4167 1.45825V5.83325" stroke="#273658" stroke-width="2" stroke-linecap="round" stroke-linejoin="round"/>
</svg>
