<svg width="33" height="33" viewBox="0 0 33 33" fill="none" xmlns="http://www.w3.org/2000/svg">
<path d="M28.655 6.33882C27.9527 5.6362 27.1188 5.07883 26.2011 4.69856C25.2833 4.31829 24.2997 4.12256 23.3062 4.12256C22.3128 4.12256 21.3291 4.31829 20.4114 4.69856C19.4936 5.07883 18.6598 5.6362 17.9575 6.33882L16.5 7.79632L15.0425 6.33882C13.6239 4.92024 11.6999 4.12329 9.69373 4.12329C7.68756 4.12329 5.76356 4.92024 4.34498 6.33882C2.9264 7.7574 2.12946 9.6814 2.12946 11.6876C2.12946 13.6937 2.9264 15.6177 4.34498 17.0363L5.80248 18.4938L16.5 29.1913L27.1975 18.4938L28.655 17.0363C29.3576 16.334 29.915 15.5002 30.2952 14.5824C30.6755 13.6647 30.8712 12.681 30.8712 11.6876C30.8712 10.6941 30.6755 9.71046 30.2952 8.79271C29.915 7.87495 29.3576 7.04111 28.655 6.33882Z" stroke="#273658" stroke-width="2" stroke-linecap="round" stroke-linejoin="round"/>
</svg>
