<svg width="34" height="34" viewBox="0 0 34 34" fill="none" xmlns="http://www.w3.org/2000/svg">
<path d="M9.91665 15.5833L15.5833 2.83325C16.7105 2.83325 17.7915 3.28102 18.5885 4.07805C19.3855 4.87508 19.8333 5.95608 19.8333 7.08325V12.7499H27.8516C28.2623 12.7453 28.6692 12.83 29.0439 12.9981C29.4186 13.1663 29.7523 13.414 30.0218 13.7239C30.2913 14.0338 30.4902 14.3987 30.6047 14.7931C30.7192 15.1876 30.7466 15.6022 30.685 16.0083L28.73 28.7583C28.6275 29.4339 28.2843 30.0497 27.7637 30.4923C27.243 30.9348 26.5799 31.1743 25.8966 31.1666H9.91665M9.91665 15.5833V31.1666M9.91665 15.5833H5.66665C4.9152 15.5833 4.19453 15.8818 3.66318 16.4131C3.13182 16.9445 2.83331 17.6651 2.83331 18.4166V28.3333C2.83331 29.0847 3.13182 29.8054 3.66318 30.3367C4.19453 30.8681 4.9152 31.1666 5.66665 31.1666H9.91665" stroke="#273658" stroke-width="2" stroke-linecap="round" stroke-linejoin="round"/>
</svg>
