<svg width="16" height="16" viewBox="0 0 16 16" fill="none" xmlns="http://www.w3.org/2000/svg">
<path d="M7.66646 7.21716C6.9234 7.21716 6.31885 7.82172 6.31885 8.56477V9.01398H9.01407V8.56477C9.01407 7.82172 8.40951 7.21716 7.66646 7.21716Z" fill="#222222"/>
<path d="M7.66649 4.52209C7.41861 4.52209 7.21729 4.72342 7.21729 4.9713C7.21729 5.21918 7.41861 5.4205 7.66649 5.4205C7.91437 5.4205 8.11569 5.21918 8.11569 4.9713C8.11569 4.72342 7.91437 4.52209 7.66649 4.52209Z" fill="#222222"/>
<path d="M14.8836 0H0.449203C0.200972 0 0 0.200972 0 0.449203V14.8836C0 15.1318 0.200972 15.3328 0.449203 15.3328H14.8836C15.1318 15.3328 15.3328 15.1318 15.3328 14.8836V0.449203C15.3328 0.200972 15.1318 0 14.8836 0ZM2.72517 13.0568C2.72517 13.3051 2.52419 13.506 2.27596 13.506C2.02773 13.506 1.82676 13.3051 1.82676 13.0568V11.26C1.82676 11.0118 2.02773 10.8108 2.27596 10.8108C2.52419 10.8108 2.72517 11.0118 2.72517 11.26V13.0568ZM4.52198 13.0568C4.52198 13.3051 4.32101 13.506 4.07278 13.506C3.82454 13.506 3.62357 13.3051 3.62357 13.0568V11.26C3.62357 11.0118 3.82454 10.8108 4.07278 10.8108C4.32101 10.8108 4.52198 11.0118 4.52198 11.26V13.0568ZM13.0568 12.6076H8.11561V13.0568C8.11561 13.3051 7.91463 13.506 7.6664 13.506C7.41817 13.506 7.2172 13.3051 7.2172 13.0568V12.6076H5.86959C5.62136 12.6076 5.42039 12.4067 5.42039 12.1584C5.42039 11.9102 5.62136 11.7092 5.86959 11.7092H7.2172V11.26C7.2172 11.0118 7.41817 10.8108 7.6664 10.8108C7.91463 10.8108 8.11561 11.0118 8.11561 11.26V11.7092H13.0568C13.3051 11.7092 13.506 11.9102 13.506 12.1584C13.506 12.4067 13.3051 12.6076 13.0568 12.6076ZM13.506 9.46322C13.506 9.71145 13.3051 9.91242 13.0568 9.91242H2.27596C2.02773 9.91242 1.82676 9.71145 1.82676 9.46322V2.27596C1.82676 2.02773 2.02773 1.82676 2.27596 1.82676H13.0568C13.3051 1.82676 13.506 2.02773 13.506 2.27596V9.46322Z" fill="#222222"/>
<path d="M2.7251 9.01407H3.6235V7.66646C3.6235 7.54714 3.67088 7.43308 3.75511 7.34886L4.65351 6.45045C4.82898 6.27498 5.11324 6.27498 5.28871 6.45045C5.46418 6.62592 5.46418 6.91018 5.28871 7.08565L4.52191 7.85245V9.01407H5.42032V8.56486C5.42032 7.32651 6.42798 6.31885 7.66633 6.31885C6.92328 6.31885 6.31872 5.71429 6.31872 4.97124C6.31872 4.22818 6.92328 3.62363 7.66633 3.62363C8.40939 3.62363 9.01394 4.22818 9.01394 4.97124C9.01394 5.71429 8.40939 6.31885 7.66633 6.31885C8.90468 6.31885 9.91235 7.32651 9.91235 8.56486V9.01407H10.8108V7.85245L10.044 7.08565C9.86848 6.91018 9.86848 6.62592 10.044 6.45045C10.2194 6.27498 10.5037 6.27498 10.6792 6.45045L11.5776 7.34886C11.6618 7.43308 11.7092 7.54714 11.7092 7.66646V9.01407H12.6076V2.72522H2.7251V9.01407Z" fill="#222222"/>
</svg>
