<svg width="14" height="15" viewBox="0 0 14 15" fill="none" xmlns="http://www.w3.org/2000/svg">
<path d="M6.88388 8.03121C6.5731 8.03121 6.30408 7.9179 6.07716 7.69064C5.85018 7.46369 5.73641 7.19464 5.73641 6.88399V1.14737C5.73641 0.836568 5.85006 0.567706 6.07716 0.340755C6.30405 0.113554 6.5731 0 6.88388 0C7.19468 0 7.46354 0.113679 7.69062 0.340755C7.9177 0.567706 8.03125 0.836694 8.03125 1.14737V6.88402C8.03125 7.19467 7.9177 7.46369 7.69062 7.69067C7.46354 7.9179 7.19459 8.03121 6.88388 8.03121Z" fill="#222222"/>
<path d="M0.721264 4.95677C1.20238 3.99478 1.87903 3.18804 2.75142 2.53676C3.00239 2.34556 3.28622 2.27085 3.60293 2.31263C3.91967 2.35448 4.17064 2.50386 4.35586 2.76073C4.54709 3.01166 4.62014 3.29399 4.57544 3.60772C4.53076 3.9216 4.38271 4.17398 4.13174 4.3652C3.54639 4.80736 3.09346 5.34823 2.77393 5.98761C2.45421 6.62692 2.29453 7.30821 2.29453 8.0311C2.29453 8.65274 2.41553 9.24569 2.65749 9.81048C2.89941 10.3752 3.22667 10.8636 3.63903 11.2759C4.0514 11.6882 4.53968 12.0153 5.10446 12.2574C5.66916 12.4994 6.26223 12.6206 6.88368 12.6206C7.50504 12.6206 8.09815 12.4994 8.66284 12.2574C9.22759 12.0153 9.71603 11.6882 10.1284 11.2759C10.5406 10.8636 10.8678 10.3752 11.1098 9.81048C11.3518 9.24569 11.4728 8.65274 11.4728 8.0311C11.4728 7.30821 11.313 6.62702 10.9933 5.98761C10.6736 5.34829 10.221 4.80746 9.63541 4.3652C9.38444 4.17385 9.2366 3.9215 9.19171 3.60772C9.14691 3.29412 9.22006 3.01166 9.41131 2.76073C9.59657 2.50386 9.84594 2.35445 10.1597 2.31263C10.4735 2.27081 10.7589 2.34556 11.0158 2.53676C11.8883 3.18804 12.5649 3.99478 13.046 4.95677C13.5271 5.91888 13.7676 6.94366 13.7676 8.03113C13.7676 8.96346 13.5853 9.85371 13.2208 10.7022C12.8563 11.5508 12.3663 12.2826 11.7508 12.8982C11.1354 13.5136 10.4033 14.0038 9.55476 14.368C8.70623 14.7326 7.81588 14.915 6.88371 14.915C5.95152 14.915 5.0612 14.7326 4.21264 14.368C3.36402 14.0036 2.63202 13.5136 2.01654 12.8982C1.40114 12.2828 0.911231 11.5508 0.54671 10.7022C0.182189 9.85371 6.96182e-05 8.96324 6.96182e-05 8.03113C3.8147e-05 6.94363 0.240174 5.91885 0.721264 4.95677Z" fill="#222222"/>
</svg>
