<svg width="24" height="32" viewBox="0 0 24 32" fill="none" xmlns="http://www.w3.org/2000/svg">
<path d="M22.2444 13.9453H21.7738V9.77631C21.7738 4.38774 17.3927 0 11.9975 0C6.60895 0 2.22121 4.38111 2.22121 9.77631C2.22121 10.2734 2.61889 10.6711 3.11599 10.6711C3.61309 10.6711 4.01077 10.2734 4.01077 9.77631C4.01077 5.37531 7.5899 1.78956 11.9975 1.78956C16.3985 1.78956 19.9843 5.36868 19.9843 9.77631V13.9453H1.75725C0.80282 13.9453 0.0273438 14.7208 0.0273438 15.6752V26.8169C0.0273438 29.6736 2.35377 32 5.21044 32H18.7912C21.6479 32 23.9743 29.6736 23.9743 26.8169V15.6752C23.9743 14.7208 23.1988 13.9453 22.2444 13.9453ZM22.1848 26.8169C22.1848 28.686 20.667 30.2104 18.7912 30.2104H5.21707C3.34797 30.2104 1.82353 28.6926 1.82353 26.8169V15.7349H22.1848V26.8169Z" fill="#20A354"/>
</svg>
