<svg width="99" height="94" viewBox="0 0 99 94" fill="none" xmlns="http://www.w3.org/2000/svg">
<path d="M97.5499 79.2369C96.7488 79.2369 96.0997 79.8862 96.0997 80.6871V90.3769C96.0997 90.5115 95.9902 90.6211 95.8555 90.6211H90.3451V69.4334C90.3451 68.6325 89.696 67.9832 88.8949 67.9832C88.0938 67.9832 87.4447 68.6325 87.4447 69.4334V90.6213H76.7964L79.6785 87.4508C80.1236 86.961 80.3334 86.2655 80.24 85.5901C80.2378 85.5756 80.2357 85.5613 80.2332 85.5468L76.9935 66.405L77.5896 65.5077L77.7449 65.6179C78.2764 65.9955 78.9543 66.1332 79.6102 65.9694C80.2543 65.8083 80.7939 65.375 81.0905 64.781V64.7808L84.3871 58.1735L91.9175 61.09C92.2147 61.2191 96.0989 63.0002 96.0989 67.6342V73.9192C96.0991 74.7202 96.7482 75.3695 97.5493 75.3695C98.3504 75.3695 98.9995 74.7202 98.9995 73.9193V67.6344C98.9995 60.9422 93.2596 58.5057 93.0154 58.4052C93.0061 58.4013 92.997 58.3976 92.9877 58.3942L80.1647 53.4279V50.7866C82.1664 49.1763 83.5721 46.8555 83.9942 44.2097C84.9925 44.0844 85.9187 43.6848 86.6873 43.0237C87.7895 42.0758 88.422 40.6966 88.422 39.24C88.422 38.0773 88.0184 36.9648 87.2958 36.0811V32.1679C87.2958 24.5097 81.0654 18.2795 73.4076 18.2795C69.9695 18.2795 66.8216 19.5379 64.3936 21.6149C64.3623 20.5037 63.9645 19.4449 63.2713 18.5972V14.6842C63.2713 7.026 57.0409 0.795776 49.3831 0.795776C41.725 0.795776 35.4947 7.02619 35.4947 14.6842V18.6993C34.7977 19.5323 34.4077 20.5366 34.3733 21.6026C32.8241 20.2786 30.9699 19.2819 28.9035 18.7378C28.1278 18.5336 27.3356 18.9963 27.1316 19.7709C26.9276 20.5455 27.3901 21.3388 28.1647 21.5428C32.9818 22.8113 36.3463 27.1806 36.3463 32.1677V34.3366C36.2836 34.3237 36.0825 34.2891 36.0748 34.2879C36.0551 33.8786 35.9514 33.6285 35.7283 33.3076C35.3571 32.7741 34.6904 32.1095 32.546 29.8047C31.7819 28.9839 30.5459 28.8332 29.6077 29.4466C25.9349 31.8458 21.4727 33.0686 17.3317 32.8255C15.9829 32.7464 15.1404 33.3391 14.7813 34.3103C14.7492 34.3155 14.3906 34.3879 14.3706 34.3927V32.1677C14.3706 27.3591 17.5839 23.033 22.1845 21.6472C22.9513 21.4164 23.3858 20.6073 23.1549 19.8403C22.9239 19.0732 22.1137 18.6388 21.3478 18.87C18.5499 19.7127 16.0349 21.4672 14.2666 23.81C12.4369 26.2335 11.4699 29.1237 11.4699 32.1679V36.1832C10.7394 37.056 10.3443 38.1168 10.3443 39.24C10.3443 41.7227 12.1735 43.888 14.7796 44.2109C15.2065 46.7947 16.6084 49.2726 18.8208 50.9574V53.4287L6.01211 58.3946C6.00303 58.398 5.99394 58.4017 5.98485 58.4054C5.74006 58.5057 0 60.9421 0 67.6342V90.3769C0 92.1112 1.41075 93.5217 3.14499 93.5217H47.8053C48.4295 93.5217 49.0102 93.3367 49.5001 93.0219C49.9897 93.3367 50.5706 93.5217 51.1949 93.5217H95.8555C97.5895 93.5217 99.0002 92.1112 99.0002 90.3769V80.6871C99.0001 79.8862 98.3509 79.2369 97.5499 79.2369ZM14.6377 41.2144C13.7875 40.9058 13.2443 40.1194 13.2443 39.2396C13.2443 38.3863 13.8631 37.6852 14.6377 37.3524V41.2144ZM81.6708 57.1215L78.8242 62.8267C78.8238 62.8263 75.6622 60.5809 75.6173 60.549C76.9813 58.8652 76.3405 59.6562 79.1767 56.1556L81.6708 57.1215ZM73.5209 58.5287L69.7703 53.8991V52.5079C70.9895 52.9295 72.3028 53.124 73.5389 53.1244C73.5391 53.1244 73.5395 53.1244 73.5397 53.1244H73.5399C74.818 53.1242 76.1119 52.8815 77.2644 52.4478V53.908L73.5209 58.5287ZM75.2236 63.8274L74.6902 64.6304H72.3523L71.8188 63.8274L73.5213 62.6183L75.2236 63.8274ZM49.4963 41.0448L45.7457 36.4152V35.024C46.96 35.4438 48.2719 35.6401 49.5142 35.6404C49.5144 35.6404 49.5148 35.6404 49.515 35.6404H49.5152C50.791 35.6404 52.0848 35.3985 53.2397 34.9641V36.4241L49.4963 41.0448ZM51.1988 46.3438L50.6653 47.1469H48.3274L47.7939 46.3438L49.4964 45.1348L51.1988 46.3438ZM38.0759 26.5879C38.3129 26.6525 38.5566 26.6964 38.8039 26.727C39.2308 29.3108 40.6327 31.7887 42.8451 33.4735V35.9448L39.8865 37.0916C39.715 36.7314 39.5006 36.392 39.2461 36.0809V32.1679C39.2461 30.1999 38.8315 28.3081 38.0759 26.5879ZM57.2026 25.0523C57.2026 29.2971 53.7399 32.7395 49.5152 32.7395C44.7487 32.7395 41.5633 29.0453 41.5633 25.0523V18.2592C46.1426 18.4425 50.8998 17.0853 54.7893 14.6645C56.097 16.0667 56.875 16.8813 57.2028 17.2595C57.2026 20.8701 57.2026 22.2642 57.2026 25.0523ZM59.9697 26.726C60.2157 26.6951 60.4582 26.651 60.6939 26.5866C59.9405 28.2959 59.519 30.1831 59.519 32.1679V36.183C59.2961 36.4493 59.1043 36.7329 58.9455 37.0305L56.1403 35.9442V33.3029C58.1417 31.6924 59.5476 29.3715 59.9697 26.726ZM43.8355 38.674L47.3956 43.0683L44.9678 44.7927C44.9664 44.7937 44.9655 44.7946 44.9641 44.7956L44.1936 45.343L41.3467 39.6379L43.8355 38.674ZM52.834 41.5327L55.1518 38.6717L57.646 39.6376L54.7995 45.343L54.0272 44.7946C54.0265 44.7941 54.0257 44.7933 54.0249 44.7927L51.5927 43.065L52.834 41.5327ZM53.5649 48.0239L53.7202 48.1341C54.2624 48.5193 54.9428 48.6465 55.5855 48.4857C56.2296 48.3246 56.7693 47.8913 57.0659 47.2973V47.2971L59.5134 42.3918C60.3543 43.4282 61.5706 44.0585 62.8231 44.2149C63.2655 46.9877 64.7643 49.354 66.87 50.9574V53.4285L54.5406 58.2085L52.9686 48.9215L53.5649 48.0239ZM67.8601 56.1578L71.4203 60.5521C69.8637 61.6579 68.2989 62.7695 68.2182 62.8267L65.3714 57.1217L67.8601 56.1578ZM81.2271 42.5362C81.2274 46.6774 77.8644 50.2234 73.5399 50.2234C68.6108 50.2234 65.588 46.3628 65.588 42.5362V35.7431C70.1346 35.9247 74.898 34.5855 78.8137 32.1484C80.1214 33.5506 80.8995 34.3652 81.2272 34.7434C81.2271 38.3538 81.2271 39.7482 81.2271 42.5362ZM85.5216 39.2398C85.5216 40.1212 84.9767 40.906 84.1282 41.2144V37.2693C85.0053 37.5887 85.5216 38.3902 85.5216 39.2398ZM62.4196 32.1677C62.4196 26.109 67.3489 21.1799 73.4074 21.1799C79.4661 21.1799 84.3951 26.1092 84.3951 32.1677V34.3366C84.3291 34.3229 84.1478 34.2916 84.1236 34.2879C84.1039 33.8782 83.9996 33.6276 83.7771 33.3076C83.396 32.7602 82.7366 32.107 80.5948 29.8047C79.8469 29.0018 78.6136 28.821 77.6565 29.4466C74.0832 31.7808 69.5687 33.0993 65.2728 32.8203C64.0661 32.7412 63.1919 33.3321 62.8301 34.3105C62.7978 34.3157 62.4397 34.3881 62.4194 34.3929V32.1677H62.4196ZM62.6874 37.3526V41.2125C61.8347 40.905 61.2941 40.1165 61.2941 39.2396C61.2939 38.3863 61.9122 37.6856 62.6874 37.3526ZM61.4965 21.7561C61.4965 22.3667 61.2322 22.9443 60.7714 23.3405C60.5736 23.5106 60.3481 23.6413 60.1032 23.7305V19.7854C60.9704 20.1002 61.4965 20.8974 61.4965 21.7561ZM49.3826 3.69616C55.4413 3.69616 60.3704 8.62527 60.3704 14.684V16.8529C60.3048 16.8394 60.1231 16.8078 60.0989 16.8042C60.0774 16.36 59.9494 16.087 59.6882 15.7337C59.2999 15.2082 58.5841 14.4856 56.5701 12.3208C55.8096 11.5042 54.5744 11.3466 53.6318 11.9627C49.8582 14.428 45.2804 15.6278 41.1312 15.3306C40.116 15.2538 39.1602 15.8672 38.8056 16.8264C38.7733 16.8316 38.415 16.9039 38.3949 16.9088V14.6842H38.3947C38.3947 8.62527 43.324 3.69616 49.3826 3.69616ZM38.6623 19.8687V23.7307C37.8121 23.4221 37.269 22.6357 37.269 21.7559C37.269 20.9074 37.8829 20.2038 38.6623 19.8687ZM36.0783 37.2693C36.8896 37.5646 37.4107 38.2724 37.4624 39.1137C37.5273 40.0492 36.9525 40.8952 36.0783 41.2127V37.2693ZM35.9439 44.2146C37.3117 44.0434 38.5672 43.3226 39.3905 42.2137L41.927 47.2971C41.927 47.2971 41.927 47.2971 41.9272 47.2973C42.2236 47.8915 42.7633 48.3246 43.4074 48.4857C44.0441 48.6448 44.7253 48.523 45.2727 48.1341L45.428 48.0239L46.0241 48.9213L44.4527 58.2058L32.1156 53.4277V50.7876H32.1154C34.1695 49.1315 35.5317 46.7915 35.9439 44.2146ZM25.4712 58.5287L21.7206 53.8991V52.5079C22.9349 52.9277 24.247 53.124 25.4894 53.1242C25.4896 53.1242 25.49 53.1242 25.4901 53.1242C26.7868 53.1242 28.0784 52.8751 29.2146 52.4478V53.908L25.4712 58.5287ZM27.1739 63.8274L26.6404 64.6304H24.3025L23.7691 63.8274L25.4716 62.6183L27.1739 63.8274ZM31.1268 56.1556L33.6211 57.1217L30.7745 62.8267L30.0022 62.2784C30.0014 62.2778 30.0006 62.277 29.9999 62.2764L27.5676 60.549L31.1268 56.1556ZM17.5382 42.5362V35.7431C22.1419 35.927 26.9022 34.5518 30.764 32.1484C32.0593 33.5375 32.8494 34.3648 33.1775 34.7434C33.1775 38.354 33.1775 39.7484 33.1775 42.5362C33.1775 46.7539 29.7386 50.2234 25.4901 50.2234C20.76 50.2234 17.5382 46.5714 17.5382 42.5362ZM19.8106 56.1578L23.3707 60.5521L20.9429 62.2764C20.9416 62.2774 20.9406 62.2784 20.9392 62.2793L20.1687 62.8267L17.3219 57.1217L19.8106 56.1578ZM11.5557 90.6215V69.4334C11.5557 68.6325 10.9066 67.9832 10.1055 67.9832C9.30444 67.9832 8.65533 68.6325 8.65533 69.4334V90.6213H3.14499C3.01002 90.6213 2.90058 90.5117 2.90058 90.3771V67.6342C2.90058 62.9764 6.82519 61.201 7.07926 61.0911L14.605 58.1735L17.902 64.7808C17.902 64.7808 17.902 64.7808 17.9022 64.781C18.1986 65.3752 18.7382 65.8083 19.3825 65.9694C20.0192 66.1285 20.7004 66.0067 21.2478 65.6179L21.4031 65.5077L21.9992 66.405L18.7595 85.5468C18.757 85.5611 18.7549 85.5756 18.7527 85.5901C18.6595 86.2651 18.8693 86.9606 19.3146 87.4512L22.1963 90.6213H11.5557V90.6215ZM21.6703 85.7301L24.7504 67.531H26.1926L29.2728 85.7301L25.4716 89.9119L21.6703 85.7301ZM48.0495 90.3769C48.0495 90.5117 47.9401 90.6213 47.8053 90.6213H42.2954V69.4334C42.2954 68.6325 41.6463 67.9832 40.8452 67.9832C40.0441 67.9832 39.395 68.6325 39.395 69.4334V90.6213H28.7467L31.6287 87.4508C32.0738 86.961 32.2836 86.2655 32.1902 85.5901C32.1881 85.5756 32.186 85.5613 32.1835 85.5468L28.9437 66.405L29.5399 65.5077L29.6951 65.6179C30.0832 65.8936 30.5426 66.0375 31.0088 66.0375C31.8594 66.0375 32.6516 65.5608 33.041 64.781V64.7808L36.3376 58.1737L43.868 61.0902C46.063 62.045 48.0493 64.5074 48.0493 67.6342V90.3769H48.0495ZM49.4999 62.3644C48.8992 61.3965 48.0994 60.5008 47.1353 59.7365L48.7752 50.0474H50.2175L51.8581 59.7415C50.8683 60.5275 50.079 61.4313 49.4999 62.3644ZM59.6053 90.6215V69.4334C59.6053 68.6325 58.9562 67.9832 58.1551 67.9832C57.354 67.9832 56.7049 68.6325 56.7049 69.4334V90.6213H51.1947C51.06 90.6213 50.9503 90.5117 50.9503 90.3771V67.6342C50.9503 65.9102 51.4909 64.3224 52.6426 62.9884C53.4104 62.1076 54.4288 61.3945 55.1292 61.0911L62.6549 58.1733L65.9519 64.7808C65.9519 64.7808 65.9519 64.7808 65.9521 64.781C66.2485 65.3752 66.7882 65.8083 67.4322 65.9694C68.069 66.1285 68.7502 66.0067 69.2976 65.6179L69.4529 65.5077L70.049 66.405L66.8092 85.5468C66.8067 85.5611 66.8046 85.5756 66.8025 85.5901C66.7093 86.2651 66.9191 86.9606 67.3644 87.4512L70.246 90.6213H59.6053V90.6215ZM69.7199 85.7303L72.8001 67.5312H74.2423L77.3226 85.7303L73.5211 89.9121L69.7199 85.7303Z" fill="white" fill-opacity="0.16"/>
</svg>
