<svg width="100" height="100" viewBox="0 0 100 100" fill="none" xmlns="http://www.w3.org/2000/svg">
<g clip-path="url(#clip0_587_334)">
<path d="M86.6678 6.66667C86.6676 6.66667 86.6672 6.66667 86.667 6.66667H65.0003V1.66667C65.0005 0.746458 64.2547 0.000208377 63.3345 4.36346e-08C63.3343 4.36346e-08 63.3339 4.36346e-08 63.3337 4.36346e-08H36.667C35.7468 -0.00020829 35.0005 0.745625 35.0003 1.66583C35.0003 1.66604 35.0003 1.66646 35.0003 1.66667V6.66667H13.3337C12.4135 6.66646 11.6672 7.41229 11.667 8.3325C11.667 8.33271 11.667 8.33313 11.667 8.33333V98.3333C11.6668 99.2535 12.4126 99.9998 13.3328 100C13.333 100 13.3335 100 13.3337 100H86.667C87.5872 100 88.3335 99.2544 88.3337 98.3342C88.3337 98.334 88.3337 98.3335 88.3337 98.3333V8.33333C88.3339 7.41313 87.588 6.66687 86.6678 6.66667ZM38.3337 3.33333H61.667V13.3333H38.3337V3.33333ZM85.0003 96.6667H15.0003V10H35.0003V15C35.0001 15.9202 35.746 16.6665 36.6662 16.6667C36.6664 16.6667 36.6668 16.6667 36.667 16.6667H63.3337C64.2539 16.6669 65.0001 15.921 65.0003 15.0008C65.0003 15.0006 65.0003 15.0002 65.0003 15V10H85.0003V96.6667Z" fill="white" fill-opacity="0.16"/>
<path d="M54.9997 76.6667H18.333V80H54.9997V76.6667Z" fill="white" fill-opacity="0.16"/>
<path d="M81.6663 76.6667H58.333V80H81.6663V76.6667Z" fill="white" fill-opacity="0.16"/>
<path d="M81.6663 83.3333H18.333V86.6667H81.6663V83.3333Z" fill="white" fill-opacity="0.16"/>
<path d="M44.9997 90H18.333V93.3333H44.9997V90Z" fill="white" fill-opacity="0.16"/>
<path d="M81.6663 90H48.333V93.3333H81.6663V90Z" fill="white" fill-opacity="0.16"/>
<path d="M30.0005 48.3333C30.0003 48.3333 29.9999 48.3333 29.9997 48.3333H19.9997C19.0795 48.3331 18.3332 49.079 18.333 49.9992C18.333 49.9994 18.333 49.9998 18.333 50V71.6667C18.3328 72.5869 19.0786 73.3331 19.9988 73.3334C19.999 73.3334 19.9995 73.3334 19.9997 73.3334H29.9997C30.9199 73.3336 31.6661 72.5877 31.6663 71.6675C31.6663 71.6673 31.6663 71.6669 31.6663 71.6667V50C31.6665 49.0798 30.9207 48.3336 30.0005 48.3333ZM28.333 70H21.6663V51.6667H28.333V70Z" fill="white" fill-opacity="0.16"/>
<path d="M46.6675 41.6667C46.6673 41.6667 46.6669 41.6667 46.6667 41.6667H36.6667C35.7465 41.6664 35.0002 42.4123 35 43.3325C35 43.3327 35 43.3331 35 43.3333V71.6667C34.9998 72.5869 35.7456 73.3331 36.6658 73.3333C36.666 73.3333 36.6665 73.3333 36.6667 73.3333H46.6667C47.5869 73.3335 48.3331 72.5877 48.3333 71.6675C48.3333 71.6673 48.3333 71.6669 48.3333 71.6667V43.3333C48.3335 42.4131 47.5877 41.6669 46.6675 41.6667ZM45 70H38.3333V45H45V70Z" fill="white" fill-opacity="0.16"/>
<path d="M63.3345 35C63.3343 35 63.3339 35 63.3337 35H53.3337C52.4135 34.9998 51.6672 35.7456 51.667 36.6658C51.667 36.666 51.667 36.6665 51.667 36.6667V71.6667C51.6668 72.5869 52.4126 73.3331 53.3328 73.3333C53.333 73.3333 53.3335 73.3333 53.3337 73.3333H63.3337C64.2539 73.3336 65.0001 72.5877 65.0003 71.6675C65.0003 71.6673 65.0003 71.6669 65.0003 71.6667V36.6667C65.0005 35.7465 64.2547 35.0002 63.3345 35ZM61.667 70H55.0003V38.3333H61.667V70Z" fill="white" fill-opacity="0.16"/>
<path d="M80.0005 28.3333C80.0003 28.3333 79.9999 28.3333 79.9997 28.3333H69.9997C69.0795 28.3331 68.3332 29.079 68.333 29.9992C68.333 29.9994 68.333 29.9998 68.333 30V71.6667C68.3328 72.5869 69.0786 73.3331 69.9988 73.3333C69.999 73.3333 69.9995 73.3333 69.9997 73.3333H79.9997C80.9199 73.3336 81.6661 72.5877 81.6663 71.6675C81.6663 71.6673 81.6663 71.6669 81.6663 71.6667V30C81.6665 29.0798 80.9207 28.3336 80.0005 28.3333ZM78.333 70H71.6663V31.6667H78.333V70Z" fill="white" fill-opacity="0.16"/>
<path d="M79.673 16.6992L63.0064 20.0325C62.793 20.0752 62.5901 20.1594 62.4091 20.28L47.8289 30H33.3334C33.0211 30 32.7151 30.0879 32.4505 30.254L19.1172 38.5873L20.8832 41.4129L33.8111 33.3333H48.3334C48.6624 33.3331 48.9841 33.2358 49.258 33.0533L63.9839 23.2356L80.3274 19.9673L79.673 16.6992Z" fill="white" fill-opacity="0.16"/>
</g>
<defs>
<clipPath id="clip0_587_334">
<rect width="100" height="100" fill="white"/>
</clipPath>
</defs>
</svg>
