<svg width="90" height="88" viewBox="0 0 90 88" fill="none" xmlns="http://www.w3.org/2000/svg">
<path d="M0 84.2502C0 85.8993 1.33721 87.2365 2.98622 87.2365H86.7455C88.3945 87.2365 89.7317 85.8993 89.7317 84.2502V3.40194C89.7317 1.75323 88.3945 0.416016 86.7455 0.416016H2.98622C1.33721 0.416016 0 1.75323 0 3.40194V84.2502ZM5.97215 6.38816H83.7599V54.6134H42.9247V44.0622L54.3841 32.6953C54.9479 32.136 55.2657 31.3756 55.2672 30.5816C55.2687 29.7876 54.9542 29.0256 54.3925 28.4637L54.3107 28.3818L71.2929 15.6453C72.612 14.6559 72.8794 12.7839 71.8902 11.4645C70.9008 10.1454 69.0291 9.87803 67.7094 10.8672L50.0446 24.1155L49.4658 23.5366C48.5011 22.5725 47.0049 22.3843 45.8318 23.0795L39.8738 26.611C40.1902 25.4974 40.363 24.3242 40.363 23.1103C40.363 16.0302 34.6029 10.2702 27.5229 10.2702C20.4425 10.2702 14.6828 16.0302 14.6828 23.1103C14.6828 26.047 15.6759 28.7543 17.3406 30.92C14.4057 33.482 13.6111 37.3692 13.2885 38.9529C12.4501 43.067 12.3358 48.4291 12.3201 54.6137H5.97215V6.38816ZM27.5232 29.9782C23.736 29.9782 20.6552 26.8975 20.6552 23.1103C20.6552 19.3234 23.736 16.2426 27.5232 16.2426C31.31 16.2426 34.3908 19.3234 34.3908 23.1103C34.3908 26.8975 31.31 29.9782 27.5232 29.9782ZM19.1404 40.1451C19.5651 38.0604 20.1337 36.7655 20.777 35.9501H35.0117C35.5471 35.9501 36.0734 35.806 36.5341 35.5329L46.882 29.3991L48.0494 30.5665L37.8357 40.698C37.2701 41.2588 36.9523 42.0219 36.9523 42.818V54.6131H18.292C18.3071 48.7585 18.411 43.7235 19.1404 40.1451ZM83.7596 60.5855V81.2643H5.97215V60.5855H83.7596Z" fill="white" fill-opacity="0.16"/>
<path d="M77.9499 67.6027H24.2051V66.6839C24.2051 65.0349 22.8682 63.6977 21.2189 63.6977C19.5699 63.6977 18.233 65.0349 18.233 66.6839V67.6027H11.7813C10.1323 67.6027 8.79541 68.9399 8.79541 70.5889C8.79541 72.2379 10.1323 73.5752 11.7813 73.5752H18.233V74.4939C18.233 76.1429 19.5699 77.4802 21.2189 77.4802C22.8682 77.4802 24.2051 76.1429 24.2051 74.4939V73.5752H77.9499C79.5992 73.5752 80.9361 72.2379 80.9361 70.5889C80.9361 68.9399 79.5992 67.6027 77.9499 67.6027Z" fill="white" fill-opacity="0.16"/>
</svg>
