<svg width="28" height="32" viewBox="0 0 28 32" fill="none" xmlns="http://www.w3.org/2000/svg">
<path d="M13.8841 17.2425C13.9173 17.2425 13.9504 17.2425 13.9901 17.2425C14.0034 17.2425 14.0167 17.2425 14.0299 17.2425C14.0498 17.2425 14.0763 17.2425 14.0962 17.2425C16.0378 17.2094 17.6083 16.5268 18.7679 15.2214C21.3192 12.3454 20.8951 7.4152 20.8487 6.94471C20.683 3.41272 19.0131 1.72292 17.6348 0.934355C16.6077 0.344585 15.4082 0.0265065 14.0697 0H14.0233C14.0167 0 14.0034 0 13.9968 0H13.957C13.2215 0 11.7769 0.119279 10.3919 0.907848C9.0003 1.69642 7.30388 3.38621 7.13821 6.94471C7.09183 7.4152 6.66772 12.3454 9.21898 15.2214C10.372 16.5268 11.9425 17.2094 13.8841 17.2425ZM8.90753 7.11038C8.90753 7.0905 8.91415 7.07062 8.91415 7.05736C9.13283 2.30607 12.5058 1.79582 13.9504 1.79582H13.9769C13.9901 1.79582 14.01 1.79582 14.0299 1.79582C15.8191 1.83558 18.8607 2.56451 19.0661 7.05736C19.0661 7.07724 19.0661 7.09712 19.0728 7.11038C19.0794 7.15676 19.5433 11.6629 17.436 14.0352C16.601 14.9762 15.4878 15.4401 14.0233 15.4533C14.01 15.4533 14.0034 15.4533 13.9901 15.4533C13.9769 15.4533 13.9703 15.4533 13.957 15.4533C12.4992 15.4401 11.3793 14.9762 10.5509 14.0352C8.45029 11.6761 8.9009 7.15014 8.90753 7.11038Z" fill="#20A354"/>
<path d="M27.608 25.4198C27.608 25.4132 27.608 25.4066 27.608 25.3999C27.608 25.3469 27.6014 25.2939 27.6014 25.2343C27.5616 23.9222 27.4755 20.8541 24.5995 19.8733C24.5796 19.8667 24.5531 19.8601 24.5332 19.8534C21.5446 19.0914 19.0596 17.3684 19.0331 17.3486C18.6289 17.0636 18.0723 17.163 17.7873 17.5672C17.5024 17.9715 17.6018 18.5281 18.006 18.8131C18.1187 18.8926 20.7561 20.7282 24.0561 21.5764C25.6001 22.1264 25.7724 23.7764 25.8188 25.2873C25.8188 25.3469 25.8188 25.3999 25.8254 25.4529C25.8321 26.0493 25.7923 26.9704 25.6863 27.5006C24.6128 28.1102 20.4049 30.2175 14.0035 30.2175C7.62871 30.2175 3.39429 28.1036 2.31415 27.4939C2.20813 26.9638 2.16174 26.0427 2.17499 25.4463C2.17499 25.3933 2.18162 25.3403 2.18162 25.2807C2.22801 23.7698 2.4003 22.1197 3.9443 21.5697C7.24437 20.7215 9.88176 18.8793 9.99442 18.8064C10.3986 18.5215 10.498 17.9648 10.2131 17.5606C9.92815 17.1564 9.37151 17.057 8.96729 17.3419C8.94078 17.3618 6.46905 19.0847 3.46719 19.8468C3.44068 19.8534 3.4208 19.8601 3.40092 19.8667C0.524961 20.8541 0.438815 23.9222 0.399055 25.2276C0.399055 25.2873 0.399055 25.3403 0.392429 25.3933C0.392429 25.3999 0.392429 25.4066 0.392429 25.4132C0.385802 25.7578 0.379175 27.5271 0.730387 28.415C0.796653 28.5873 0.915933 28.7331 1.07497 28.8325C1.27377 28.9651 6.03832 32.0001 14.0102 32.0001C21.982 32.0001 26.7465 28.9584 26.9453 28.8325C27.0978 28.7331 27.2237 28.5873 27.2899 28.415C27.6213 27.5337 27.6146 25.7644 27.608 25.4198Z" fill="#20A354"/>
</svg>
